<svg xmlns="http://www.w3.org/2000/svg" xmlns:xlink="http://www.w3.org/1999/xlink" width="1024" zoomAndPan="magnify" viewBox="0 0 768 767.999994" height="1024" preserveAspectRatio="xMidYMid meet" version="1.0"><rect x="-76.8" width="921.6" fill="#ffffff" y="-76.799999" height="921.599993" fill-opacity="1"/><rect x="-76.8" width="921.6" fill="#ffffff" y="-76.799999" height="921.599993" fill-opacity="1"/><path fill="#788ace" d="M 695.960938 342.054688 L 678.316406 368.226562 L 296.148438 110.835938 L 313.796875 84.667969 C 321.894531 72.628906 338.296875 69.417969 350.292969 77.511719 L 688.808594 305.519531 C 700.84375 313.613281 704.058594 330.019531 695.960938 342.054688 Z M 572.855469 524.828125 L 592.261719 386.347656 L 643.0625 420.570312 Z M 536.875 644.933594 C 534.863281 659.285156 521.542969 669.351562 507.191406 667.335938 L 103.011719 610.710938 C 88.660156 608.699219 78.554688 595.332031 80.609375 580.984375 L 105.410156 403.867188 L 561.71875 467.859375 Z M 118.558594 310.144531 C 120.574219 295.753906 133.894531 285.730469 148.242188 287.742188 L 552.425781 344.410156 C 566.816406 346.382812 576.882812 359.703125 574.828125 374.09375 L 570.457031 405.320312 L 114.148438 341.371094 Z M 260.941406 163.179688 L 488.21875 316.269531 L 186.324219 273.90625 Z M 699.390625 289.839844 L 360.914062 61.835938 C 340.226562 47.914062 312.042969 53.355469 298.078125 74.085938 L 165.421875 270.996094 L 150.898438 268.980469 C 126.183594 265.511719 103.269531 282.816406 99.796875 307.53125 L 61.890625 578.328125 C 58.378906 603.042969 75.683594 625.960938 100.355469 629.429688 L 504.539062 686.097656 C 529.253906 689.566406 552.167969 672.21875 555.636719 647.546875 L 566.859375 567.621094 L 711.640625 352.59375 C 725.605469 331.945312 720.078125 303.761719 699.390625 289.839844 " fill-opacity="1" fill-rule="nonzero"/><path fill="#788ace" d="M 323.605469 483.792969 L 518.5 511.164062 L 520.644531 495.703125 L 325.789062 468.375 L 323.605469 483.792969 " fill-opacity="1" fill-rule="nonzero"/><path fill="#788ace" d="M 318.980469 517.203125 L 513.832031 544.488281 L 515.972656 529.027344 L 321.121094 501.699219 L 318.980469 517.203125 " fill-opacity="1" fill-rule="nonzero"/></svg>