<svg xmlns="http://www.w3.org/2000/svg" xmlns:xlink="http://www.w3.org/1999/xlink" width="1024" zoomAndPan="magnify" viewBox="0 0 768 767.999994" height="1024" preserveAspectRatio="xMidYMid meet" version="1.0"><defs><clipPath id="f5dda5deb2"><path d="M 202 76.800781 L 537 76.800781 L 537 665.441406 L 202 665.441406 Z M 202 76.800781 " clip-rule="nonzero"/></clipPath><clipPath id="3bbda3a983"><path d="M 59.777344 116 L 329 116 L 329 386 L 59.777344 386 Z M 59.777344 116 " clip-rule="nonzero"/></clipPath><clipPath id="bf75060c7c"><path d="M 412 356 L 680.777344 356 L 680.777344 626 L 412 626 Z M 412 356 " clip-rule="nonzero"/></clipPath></defs><rect x="-76.8" width="921.6" fill="#ffffff" y="-76.799999" height="921.599993" fill-opacity="1"/><rect x="-76.8" width="921.6" fill="#ffffff" y="-76.799999" height="921.599993" fill-opacity="1"/><g clip-path="url(#f5dda5deb2)"><path fill="#788ace" d="M 517.382812 80.582031 C 499.957031 71.722656 478.636719 78.671875 469.773438 96.105469 L 206.472656 613.984375 C 197.613281 631.421875 204.5625 652.730469 221.984375 661.59375 C 227.125 664.207031 232.601562 665.441406 238.003906 665.441406 C 250.902344 665.441406 263.335938 658.367188 269.59375 646.082031 L 532.894531 128.191406 C 541.757812 110.765625 534.808594 89.445312 517.382812 80.582031 Z M 517.382812 80.582031 " fill-opacity="1" fill-rule="nonzero"/></g><g clip-path="url(#3bbda3a983)"><path fill="#788ace" d="M 328.324219 251.136719 C 328.324219 177.089844 268.082031 116.863281 194.050781 116.863281 C 120.015625 116.863281 59.777344 177.089844 59.777344 251.136719 C 59.777344 325.167969 120.015625 385.40625 194.050781 385.40625 C 268.082031 385.40625 328.324219 325.167969 328.324219 251.136719 Z M 194.050781 314.601562 C 159.0625 314.601562 130.585938 286.125 130.585938 251.136719 C 130.585938 216.136719 159.0625 187.667969 194.050781 187.667969 C 229.039062 187.667969 257.515625 216.136719 257.515625 251.136719 C 257.515625 286.125 229.039062 314.601562 194.050781 314.601562 Z M 194.050781 314.601562 " fill-opacity="1" fill-rule="nonzero"/></g><g clip-path="url(#bf75060c7c)"><path fill="#788ace" d="M 546.917969 356.78125 C 472.886719 356.78125 412.648438 417.019531 412.648438 491.050781 C 412.648438 565.085938 472.875 625.324219 546.917969 625.324219 C 620.953125 625.324219 681.191406 565.085938 681.191406 491.050781 C 681.191406 417.007812 620.953125 356.78125 546.917969 356.78125 Z M 546.917969 554.507812 C 511.917969 554.507812 483.453125 526.039062 483.453125 491.050781 C 483.453125 456.050781 511.917969 427.585938 546.917969 427.585938 C 581.90625 427.585938 610.386719 456.050781 610.386719 491.050781 C 610.386719 526.039062 581.90625 554.507812 546.917969 554.507812 Z M 546.917969 554.507812 " fill-opacity="1" fill-rule="nonzero"/></g></svg>