<svg xmlns="http://www.w3.org/2000/svg" xmlns:xlink="http://www.w3.org/1999/xlink" width="1024" zoomAndPan="magnify" viewBox="0 0 768 767.999994" height="1024" preserveAspectRatio="xMidYMid meet" version="1.0"><defs><clipPath id="b0324a3d32"><path d="M 71.421875 48 L 690 48 L 690 336 L 71.421875 336 Z M 71.421875 48 " clip-rule="nonzero"/></clipPath></defs><rect x="-76.8" width="921.6" fill="#ffffff" y="-76.799999" height="921.599993" fill-opacity="1"/><rect x="-76.8" width="921.6" fill="#ffffff" y="-76.799999" height="921.599993" fill-opacity="1"/><path fill="#ffffff" d="M 92.863281 562.066406 L 216.230469 562.066406 L 216.230469 644.308594 L 92.863281 644.308594 Z M 92.863281 562.066406 " fill-opacity="1" fill-rule="nonzero"/><path fill="#788ace" d="M 216.230469 664.871094 L 92.863281 664.871094 C 92.191406 664.871094 91.519531 664.839844 90.847656 664.773438 C 90.179688 664.707031 89.515625 664.605469 88.851562 664.476562 C 88.191406 664.34375 87.539062 664.179688 86.894531 663.984375 C 86.25 663.789062 85.617188 663.5625 84.996094 663.304688 C 84.375 663.046875 83.765625 662.761719 83.171875 662.441406 C 82.578125 662.125 82 661.78125 81.441406 661.40625 C 80.882812 661.03125 80.339844 660.632812 79.820312 660.203125 C 79.300781 659.777344 78.800781 659.324219 78.324219 658.847656 C 77.847656 658.371094 77.398438 657.875 76.96875 657.355469 C 76.542969 656.832031 76.144531 656.292969 75.769531 655.734375 C 75.394531 655.171875 75.046875 654.597656 74.730469 654.003906 C 74.414062 653.410156 74.125 652.800781 73.867188 652.179688 C 73.609375 651.554688 73.382812 650.921875 73.1875 650.277344 C 72.992188 649.632812 72.828125 648.980469 72.699219 648.320312 C 72.566406 647.660156 72.46875 646.996094 72.402344 646.324219 C 72.335938 645.65625 72.304688 644.984375 72.304688 644.308594 L 72.304688 562.066406 C 72.304688 561.390625 72.335938 560.71875 72.402344 560.050781 C 72.46875 559.378906 72.566406 558.714844 72.699219 558.054688 C 72.828125 557.394531 72.992188 556.742188 73.1875 556.097656 C 73.382812 555.453125 73.609375 554.820312 73.867188 554.199219 C 74.125 553.574219 74.414062 552.96875 74.730469 552.375 C 75.046875 551.78125 75.394531 551.203125 75.769531 550.644531 C 76.144531 550.082031 76.542969 549.542969 76.96875 549.023438 C 77.398438 548.5 77.847656 548.003906 78.324219 547.527344 C 78.800781 547.050781 79.300781 546.597656 79.820312 546.171875 C 80.339844 545.746094 80.882812 545.34375 81.441406 544.96875 C 82 544.59375 82.578125 544.25 83.171875 543.933594 C 83.765625 543.613281 84.375 543.328125 84.996094 543.070312 C 85.617188 542.8125 86.25 542.585938 86.894531 542.390625 C 87.539062 542.195312 88.191406 542.03125 88.851562 541.898438 C 89.515625 541.769531 90.179688 541.667969 90.847656 541.605469 C 91.519531 541.539062 92.191406 541.503906 92.863281 541.503906 L 216.230469 541.503906 C 216.90625 541.503906 217.578125 541.539062 218.246094 541.605469 C 218.917969 541.667969 219.582031 541.769531 220.242188 541.898438 C 220.902344 542.03125 221.554688 542.195312 222.199219 542.390625 C 222.84375 542.585938 223.476562 542.8125 224.097656 543.070312 C 224.722656 543.328125 225.328125 543.613281 225.921875 543.933594 C 226.515625 544.25 227.09375 544.59375 227.652344 544.96875 C 228.214844 545.34375 228.753906 545.746094 229.273438 546.171875 C 229.796875 546.597656 230.292969 547.050781 230.769531 547.527344 C 231.246094 548.003906 231.699219 548.5 232.125 549.023438 C 232.550781 549.542969 232.953125 550.082031 233.328125 550.640625 C 233.699219 551.203125 234.046875 551.78125 234.363281 552.375 C 234.683594 552.96875 234.96875 553.574219 235.226562 554.199219 C 235.484375 554.820312 235.710938 555.453125 235.90625 556.097656 C 236.101562 556.742188 236.265625 557.394531 236.398438 558.054688 C 236.527344 558.714844 236.628906 559.378906 236.691406 560.050781 C 236.757812 560.71875 236.792969 561.390625 236.792969 562.066406 L 236.792969 644.308594 C 236.792969 644.984375 236.757812 645.65625 236.691406 646.324219 C 236.628906 646.996094 236.527344 647.660156 236.398438 648.320312 C 236.265625 648.980469 236.101562 649.632812 235.90625 650.277344 C 235.710938 650.921875 235.484375 651.554688 235.226562 652.179688 C 234.96875 652.800781 234.683594 653.410156 234.363281 654.003906 C 234.046875 654.597656 233.699219 655.171875 233.328125 655.734375 C 232.953125 656.292969 232.550781 656.832031 232.125 657.355469 C 231.699219 657.875 231.246094 658.371094 230.769531 658.847656 C 230.292969 659.324219 229.796875 659.777344 229.273438 660.203125 C 228.753906 660.632812 228.214844 661.03125 227.652344 661.40625 C 227.09375 661.78125 226.515625 662.125 225.921875 662.441406 C 225.328125 662.761719 224.722656 663.046875 224.097656 663.304688 C 223.476562 663.5625 222.84375 663.789062 222.199219 663.984375 C 221.554688 664.179688 220.902344 664.34375 220.242188 664.476562 C 219.582031 664.605469 218.917969 664.707031 218.246094 664.773438 C 217.578125 664.839844 216.90625 664.871094 216.230469 664.871094 Z M 113.425781 623.75 L 195.671875 623.75 L 195.671875 582.625 L 113.425781 582.625 Z M 113.425781 623.75 " fill-opacity="1" fill-rule="nonzero"/><path fill="#ffffff" d="M 92.863281 479.820312 L 216.230469 479.820312 L 216.230469 562.066406 L 92.863281 562.066406 Z M 92.863281 479.820312 " fill-opacity="1" fill-rule="nonzero"/><path fill="#788ace" d="M 216.230469 582.625 L 92.863281 582.625 C 92.191406 582.625 91.519531 582.59375 90.847656 582.527344 C 90.179688 582.460938 89.515625 582.363281 88.851562 582.230469 C 88.191406 582.101562 87.539062 581.9375 86.894531 581.742188 C 86.25 581.546875 85.617188 581.320312 84.996094 581.0625 C 84.375 580.804688 83.765625 580.515625 83.171875 580.199219 C 82.578125 579.882812 82 579.535156 81.441406 579.160156 C 80.882812 578.789062 80.339844 578.386719 79.820312 577.960938 C 79.300781 577.53125 78.800781 577.082031 78.324219 576.605469 C 77.847656 576.128906 77.398438 575.628906 76.96875 575.109375 C 76.542969 574.589844 76.144531 574.046875 75.769531 573.488281 C 75.394531 572.929688 75.046875 572.351562 74.730469 571.757812 C 74.414062 571.164062 74.125 570.554688 73.867188 569.933594 C 73.609375 569.3125 73.382812 568.679688 73.1875 568.035156 C 72.992188 567.390625 72.828125 566.738281 72.699219 566.078125 C 72.566406 565.417969 72.46875 564.75 72.402344 564.082031 C 72.335938 563.410156 72.304688 562.738281 72.304688 562.066406 L 72.304688 479.820312 C 72.304688 479.148438 72.335938 478.476562 72.402344 477.804688 C 72.46875 477.136719 72.566406 476.46875 72.699219 475.808594 C 72.828125 475.148438 72.992188 474.496094 73.1875 473.851562 C 73.382812 473.207031 73.609375 472.574219 73.867188 471.953125 C 74.125 471.332031 74.414062 470.722656 74.730469 470.128906 C 75.046875 469.535156 75.394531 468.957031 75.769531 468.398438 C 76.144531 467.839844 76.542969 467.296875 76.96875 466.777344 C 77.398438 466.257812 77.847656 465.757812 78.324219 465.28125 C 78.800781 464.804688 79.300781 464.355469 79.820312 463.925781 C 80.339844 463.5 80.882812 463.097656 81.441406 462.726562 C 82 462.351562 82.578125 462.003906 83.171875 461.6875 C 83.765625 461.371094 84.375 461.082031 84.996094 460.824219 C 85.617188 460.566406 86.25 460.339844 86.894531 460.144531 C 87.539062 459.949219 88.191406 459.785156 88.851562 459.65625 C 89.515625 459.523438 90.179688 459.425781 90.847656 459.359375 C 91.519531 459.292969 92.191406 459.261719 92.863281 459.261719 L 216.230469 459.261719 C 216.90625 459.261719 217.578125 459.292969 218.246094 459.359375 C 218.917969 459.425781 219.582031 459.523438 220.242188 459.65625 C 220.902344 459.785156 221.554688 459.949219 222.199219 460.144531 C 222.84375 460.339844 223.476562 460.566406 224.097656 460.824219 C 224.722656 461.082031 225.328125 461.371094 225.921875 461.6875 C 226.515625 462.003906 227.09375 462.351562 227.652344 462.726562 C 228.214844 463.097656 228.753906 463.5 229.273438 463.925781 C 229.796875 464.355469 230.292969 464.804688 230.769531 465.28125 C 231.246094 465.757812 231.699219 466.257812 232.125 466.777344 C 232.550781 467.296875 232.953125 467.839844 233.328125 468.398438 C 233.699219 468.957031 234.046875 469.535156 234.363281 470.128906 C 234.683594 470.722656 234.96875 471.332031 235.226562 471.953125 C 235.484375 472.574219 235.710938 473.207031 235.90625 473.851562 C 236.101562 474.496094 236.265625 475.148438 236.398438 475.808594 C 236.527344 476.46875 236.628906 477.136719 236.691406 477.804688 C 236.757812 478.476562 236.792969 479.148438 236.792969 479.820312 L 236.792969 562.066406 C 236.792969 562.738281 236.757812 563.410156 236.691406 564.082031 C 236.628906 564.75 236.527344 565.417969 236.398438 566.078125 C 236.265625 566.738281 236.101562 567.390625 235.90625 568.035156 C 235.710938 568.679688 235.484375 569.3125 235.226562 569.933594 C 234.96875 570.554688 234.683594 571.164062 234.363281 571.757812 C 234.046875 572.351562 233.699219 572.929688 233.328125 573.488281 C 232.953125 574.046875 232.550781 574.589844 232.125 575.109375 C 231.699219 575.628906 231.246094 576.128906 230.769531 576.605469 C 230.292969 577.082031 229.796875 577.53125 229.273438 577.960938 C 228.753906 578.386719 228.214844 578.789062 227.652344 579.160156 C 227.09375 579.535156 226.515625 579.882812 225.921875 580.199219 C 225.328125 580.515625 224.722656 580.804688 224.097656 581.0625 C 223.476562 581.320312 222.84375 581.546875 222.199219 581.742188 C 221.554688 581.9375 220.902344 582.101562 220.242188 582.230469 C 219.582031 582.363281 218.917969 582.460938 218.246094 582.527344 C 217.578125 582.59375 216.90625 582.625 216.230469 582.625 Z M 113.425781 541.503906 L 195.671875 541.503906 L 195.671875 500.382812 L 113.425781 500.382812 Z M 113.425781 541.503906 " fill-opacity="1" fill-rule="nonzero"/><path fill="#ffffff" d="M 319.035156 562.066406 L 442.402344 562.066406 L 442.402344 644.308594 L 319.035156 644.308594 Z M 319.035156 562.066406 " fill-opacity="1" fill-rule="nonzero"/><path fill="#788ace" d="M 442.402344 664.871094 L 319.035156 664.871094 C 318.363281 664.871094 317.691406 664.839844 317.019531 664.773438 C 316.351562 664.707031 315.6875 664.605469 315.023438 664.476562 C 314.363281 664.34375 313.710938 664.179688 313.066406 663.984375 C 312.421875 663.789062 311.789062 663.5625 311.167969 663.304688 C 310.546875 663.046875 309.9375 662.761719 309.34375 662.441406 C 308.75 662.125 308.171875 661.78125 307.613281 661.40625 C 307.054688 661.03125 306.511719 660.632812 305.992188 660.203125 C 305.472656 659.777344 304.972656 659.324219 304.496094 658.847656 C 304.019531 658.371094 303.570312 657.875 303.140625 657.355469 C 302.714844 656.832031 302.316406 656.292969 301.941406 655.734375 C 301.566406 655.171875 301.21875 654.597656 300.902344 654.003906 C 300.585938 653.410156 300.296875 652.800781 300.039062 652.179688 C 299.78125 651.554688 299.554688 650.921875 299.359375 650.277344 C 299.164062 649.632812 299 648.980469 298.871094 648.320312 C 298.738281 647.660156 298.640625 646.996094 298.574219 646.324219 C 298.507812 645.65625 298.476562 644.984375 298.476562 644.308594 L 298.476562 562.066406 C 298.476562 561.390625 298.507812 560.71875 298.574219 560.050781 C 298.640625 559.378906 298.738281 558.714844 298.871094 558.054688 C 299 557.394531 299.164062 556.742188 299.359375 556.097656 C 299.554688 555.453125 299.78125 554.820312 300.039062 554.199219 C 300.296875 553.574219 300.585938 552.96875 300.902344 552.375 C 301.21875 551.78125 301.566406 551.203125 301.941406 550.644531 C 302.316406 550.082031 302.714844 549.542969 303.140625 549.023438 C 303.570312 548.5 304.019531 548.003906 304.496094 547.527344 C 304.972656 547.050781 305.472656 546.597656 305.992188 546.171875 C 306.511719 545.746094 307.054688 545.34375 307.613281 544.96875 C 308.171875 544.59375 308.75 544.25 309.34375 543.933594 C 309.9375 543.613281 310.546875 543.328125 311.167969 543.070312 C 311.789062 542.8125 312.421875 542.585938 313.066406 542.390625 C 313.710938 542.195312 314.363281 542.03125 315.023438 541.898438 C 315.6875 541.769531 316.351562 541.667969 317.019531 541.605469 C 317.691406 541.539062 318.363281 541.503906 319.035156 541.503906 L 442.402344 541.503906 C 443.078125 541.503906 443.746094 541.539062 444.417969 541.605469 C 445.089844 541.667969 445.753906 541.769531 446.414062 541.898438 C 447.074219 542.03125 447.726562 542.195312 448.371094 542.390625 C 449.015625 542.585938 449.648438 542.8125 450.269531 543.070312 C 450.894531 543.328125 451.5 543.613281 452.09375 543.933594 C 452.6875 544.25 453.265625 544.59375 453.824219 544.96875 C 454.386719 545.34375 454.925781 545.746094 455.445312 546.171875 C 455.96875 546.597656 456.464844 547.050781 456.941406 547.527344 C 457.417969 548.003906 457.871094 548.5 458.296875 549.023438 C 458.722656 549.542969 459.125 550.082031 459.5 550.640625 C 459.871094 551.203125 460.21875 551.78125 460.535156 552.375 C 460.851562 552.96875 461.140625 553.574219 461.398438 554.195312 C 461.65625 554.820312 461.882812 555.453125 462.078125 556.097656 C 462.273438 556.742188 462.4375 557.394531 462.570312 558.054688 C 462.699219 558.714844 462.800781 559.378906 462.863281 560.050781 C 462.929688 560.71875 462.964844 561.390625 462.964844 562.066406 L 462.964844 644.308594 C 462.964844 644.984375 462.929688 645.65625 462.863281 646.324219 C 462.800781 646.996094 462.699219 647.660156 462.570312 648.320312 C 462.4375 648.980469 462.273438 649.632812 462.078125 650.277344 C 461.882812 650.921875 461.65625 651.554688 461.398438 652.179688 C 461.140625 652.800781 460.855469 653.410156 460.535156 654.003906 C 460.21875 654.597656 459.871094 655.171875 459.5 655.734375 C 459.125 656.292969 458.722656 656.832031 458.296875 657.355469 C 457.871094 657.875 457.417969 658.371094 456.941406 658.847656 C 456.464844 659.324219 455.96875 659.777344 455.445312 660.203125 C 454.925781 660.632812 454.386719 661.03125 453.824219 661.40625 C 453.265625 661.78125 452.6875 662.125 452.09375 662.441406 C 451.5 662.761719 450.894531 663.046875 450.269531 663.304688 C 449.648438 663.5625 449.015625 663.789062 448.371094 663.984375 C 447.726562 664.179688 447.074219 664.34375 446.414062 664.476562 C 445.753906 664.605469 445.089844 664.707031 444.417969 664.773438 C 443.746094 664.839844 443.078125 664.871094 442.402344 664.871094 Z M 339.597656 623.75 L 421.839844 623.75 L 421.839844 582.625 L 339.597656 582.625 Z M 339.597656 623.75 " fill-opacity="1" fill-rule="nonzero"/><path fill="#ffffff" d="M 319.035156 479.820312 L 442.402344 479.820312 L 442.402344 562.066406 L 319.035156 562.066406 Z M 319.035156 479.820312 " fill-opacity="1" fill-rule="nonzero"/><path fill="#788ace" d="M 442.402344 582.625 L 319.035156 582.625 C 318.363281 582.625 317.691406 582.59375 317.019531 582.527344 C 316.351562 582.460938 315.6875 582.363281 315.023438 582.230469 C 314.363281 582.101562 313.710938 581.9375 313.066406 581.742188 C 312.421875 581.546875 311.789062 581.320312 311.167969 581.0625 C 310.546875 580.804688 309.9375 580.515625 309.34375 580.199219 C 308.75 579.882812 308.171875 579.535156 307.613281 579.160156 C 307.054688 578.789062 306.511719 578.386719 305.992188 577.960938 C 305.472656 577.53125 304.972656 577.082031 304.496094 576.605469 C 304.019531 576.128906 303.570312 575.628906 303.140625 575.109375 C 302.714844 574.589844 302.316406 574.046875 301.941406 573.488281 C 301.566406 572.929688 301.21875 572.351562 300.902344 571.757812 C 300.585938 571.164062 300.296875 570.554688 300.039062 569.933594 C 299.78125 569.3125 299.554688 568.679688 299.359375 568.035156 C 299.164062 567.390625 299 566.738281 298.871094 566.078125 C 298.738281 565.417969 298.640625 564.75 298.574219 564.082031 C 298.507812 563.410156 298.476562 562.738281 298.476562 562.066406 L 298.476562 479.820312 C 298.476562 479.148438 298.507812 478.476562 298.574219 477.804688 C 298.640625 477.136719 298.738281 476.46875 298.871094 475.808594 C 299 475.148438 299.164062 474.496094 299.359375 473.851562 C 299.554688 473.207031 299.78125 472.574219 300.039062 471.953125 C 300.296875 471.332031 300.585938 470.722656 300.902344 470.128906 C 301.21875 469.535156 301.566406 468.957031 301.941406 468.398438 C 302.316406 467.839844 302.714844 467.296875 303.140625 466.777344 C 303.570312 466.257812 304.019531 465.757812 304.496094 465.28125 C 304.972656 464.804688 305.472656 464.355469 305.992188 463.925781 C 306.511719 463.5 307.054688 463.097656 307.613281 462.726562 C 308.171875 462.351562 308.75 462.003906 309.34375 461.6875 C 309.9375 461.371094 310.546875 461.082031 311.167969 460.824219 C 311.789062 460.566406 312.421875 460.339844 313.066406 460.144531 C 313.710938 459.949219 314.363281 459.785156 315.023438 459.65625 C 315.6875 459.523438 316.351562 459.425781 317.019531 459.359375 C 317.691406 459.292969 318.363281 459.261719 319.035156 459.261719 L 442.402344 459.261719 C 443.078125 459.261719 443.746094 459.292969 444.417969 459.359375 C 445.089844 459.425781 445.753906 459.523438 446.414062 459.65625 C 447.074219 459.785156 447.726562 459.949219 448.371094 460.144531 C 449.015625 460.339844 449.648438 460.566406 450.269531 460.824219 C 450.894531 461.082031 451.5 461.371094 452.09375 461.6875 C 452.6875 462.003906 453.265625 462.351562 453.824219 462.726562 C 454.386719 463.097656 454.925781 463.5 455.445312 463.925781 C 455.96875 464.355469 456.464844 464.804688 456.941406 465.28125 C 457.417969 465.757812 457.871094 466.257812 458.296875 466.777344 C 458.722656 467.296875 459.125 467.839844 459.5 468.398438 C 459.871094 468.957031 460.21875 469.535156 460.535156 470.128906 C 460.851562 470.722656 461.140625 471.332031 461.398438 471.953125 C 461.65625 472.574219 461.882812 473.207031 462.078125 473.851562 C 462.273438 474.496094 462.4375 475.148438 462.570312 475.808594 C 462.699219 476.46875 462.800781 477.136719 462.863281 477.804688 C 462.929688 478.476562 462.964844 479.148438 462.964844 479.820312 L 462.964844 562.066406 C 462.964844 562.738281 462.929688 563.410156 462.863281 564.082031 C 462.800781 564.75 462.699219 565.417969 462.570312 566.078125 C 462.4375 566.738281 462.273438 567.390625 462.078125 568.035156 C 461.882812 568.679688 461.65625 569.3125 461.398438 569.933594 C 461.140625 570.554688 460.855469 571.164062 460.535156 571.757812 C 460.21875 572.351562 459.871094 572.929688 459.5 573.488281 C 459.125 574.046875 458.722656 574.589844 458.296875 575.109375 C 457.871094 575.628906 457.417969 576.128906 456.941406 576.605469 C 456.464844 577.082031 455.96875 577.53125 455.445312 577.960938 C 454.925781 578.386719 454.386719 578.789062 453.824219 579.160156 C 453.265625 579.535156 452.6875 579.882812 452.09375 580.199219 C 451.5 580.515625 450.894531 580.804688 450.269531 581.0625 C 449.648438 581.320312 449.015625 581.546875 448.371094 581.742188 C 447.726562 581.9375 447.074219 582.101562 446.414062 582.230469 C 445.753906 582.363281 445.089844 582.460938 444.417969 582.527344 C 443.746094 582.59375 443.078125 582.625 442.402344 582.625 Z M 339.597656 541.503906 L 421.839844 541.503906 L 421.839844 500.382812 L 339.597656 500.382812 Z M 339.597656 541.503906 " fill-opacity="1" fill-rule="nonzero"/><path fill="#ffffff" d="M 319.035156 397.578125 L 442.402344 397.578125 L 442.402344 479.820312 L 319.035156 479.820312 Z M 319.035156 397.578125 " fill-opacity="1" fill-rule="nonzero"/><path fill="#788ace" d="M 442.402344 500.382812 L 319.035156 500.382812 C 318.363281 500.382812 317.691406 500.347656 317.019531 500.285156 C 316.351562 500.21875 315.6875 500.117188 315.023438 499.988281 C 314.363281 499.855469 313.710938 499.691406 313.066406 499.496094 C 312.421875 499.300781 311.789062 499.074219 311.167969 498.816406 C 310.546875 498.558594 309.9375 498.273438 309.34375 497.953125 C 308.75 497.636719 308.171875 497.292969 307.613281 496.917969 C 307.054688 496.542969 306.511719 496.140625 305.992188 495.714844 C 305.472656 495.289062 304.972656 494.835938 304.496094 494.359375 C 304.019531 493.882812 303.570312 493.386719 303.140625 492.863281 C 302.714844 492.34375 302.316406 491.804688 301.941406 491.246094 C 301.566406 490.683594 301.21875 490.109375 300.902344 489.515625 C 300.585938 488.917969 300.296875 488.3125 300.039062 487.691406 C 299.78125 487.066406 299.554688 486.433594 299.359375 485.789062 C 299.164062 485.144531 299 484.492188 298.871094 483.832031 C 298.738281 483.171875 298.640625 482.507812 298.574219 481.835938 C 298.507812 481.167969 298.476562 480.496094 298.476562 479.820312 L 298.476562 397.578125 C 298.476562 396.902344 298.507812 396.230469 298.574219 395.5625 C 298.640625 394.890625 298.738281 394.226562 298.871094 393.566406 C 299 392.90625 299.164062 392.253906 299.359375 391.609375 C 299.554688 390.964844 299.78125 390.332031 300.039062 389.707031 C 300.296875 389.085938 300.585938 388.480469 300.902344 387.882812 C 301.21875 387.289062 301.566406 386.714844 301.941406 386.152344 C 302.316406 385.59375 302.714844 385.054688 303.140625 384.535156 C 303.570312 384.011719 304.019531 383.515625 304.496094 383.039062 C 304.972656 382.5625 305.472656 382.109375 305.992188 381.683594 C 306.511719 381.257812 307.054688 380.855469 307.613281 380.480469 C 308.171875 380.105469 308.75 379.761719 309.34375 379.445312 C 309.9375 379.125 310.546875 378.839844 311.167969 378.582031 C 311.789062 378.324219 312.421875 378.097656 313.066406 377.902344 C 313.710938 377.707031 314.363281 377.542969 315.023438 377.410156 C 315.6875 377.28125 316.351562 377.179688 317.019531 377.113281 C 317.691406 377.050781 318.363281 377.015625 319.035156 377.015625 L 442.402344 377.015625 C 443.078125 377.015625 443.746094 377.050781 444.417969 377.113281 C 445.089844 377.179688 445.753906 377.28125 446.414062 377.410156 C 447.074219 377.542969 447.726562 377.707031 448.371094 377.902344 C 449.015625 378.097656 449.648438 378.324219 450.269531 378.582031 C 450.894531 378.839844 451.5 379.125 452.09375 379.445312 C 452.6875 379.761719 453.265625 380.105469 453.824219 380.480469 C 454.386719 380.855469 454.925781 381.257812 455.445312 381.683594 C 455.96875 382.109375 456.464844 382.5625 456.941406 383.039062 C 457.417969 383.515625 457.871094 384.011719 458.296875 384.535156 C 458.722656 385.054688 459.125 385.59375 459.5 386.152344 C 459.871094 386.714844 460.21875 387.289062 460.535156 387.882812 C 460.851562 388.476562 461.140625 389.085938 461.398438 389.707031 C 461.65625 390.332031 461.882812 390.964844 462.078125 391.609375 C 462.273438 392.253906 462.4375 392.90625 462.570312 393.566406 C 462.699219 394.226562 462.800781 394.890625 462.863281 395.5625 C 462.929688 396.230469 462.964844 396.902344 462.964844 397.578125 L 462.964844 479.820312 C 462.964844 480.496094 462.929688 481.167969 462.863281 481.835938 C 462.800781 482.507812 462.699219 483.171875 462.570312 483.832031 C 462.4375 484.492188 462.273438 485.144531 462.078125 485.789062 C 461.882812 486.433594 461.65625 487.066406 461.398438 487.691406 C 461.140625 488.3125 460.855469 488.917969 460.535156 489.515625 C 460.21875 490.109375 459.871094 490.683594 459.5 491.246094 C 459.125 491.804688 458.722656 492.34375 458.296875 492.863281 C 457.871094 493.386719 457.417969 493.882812 456.941406 494.359375 C 456.464844 494.835938 455.96875 495.289062 455.445312 495.714844 C 454.925781 496.140625 454.386719 496.542969 453.824219 496.917969 C 453.265625 497.292969 452.6875 497.636719 452.09375 497.953125 C 451.5 498.273438 450.894531 498.558594 450.269531 498.816406 C 449.648438 499.074219 449.015625 499.300781 448.371094 499.496094 C 447.726562 499.691406 447.074219 499.855469 446.414062 499.988281 C 445.753906 500.117188 445.089844 500.21875 444.417969 500.285156 C 443.746094 500.347656 443.078125 500.382812 442.402344 500.382812 Z M 339.597656 459.261719 L 421.839844 459.261719 L 421.839844 418.136719 L 339.597656 418.136719 Z M 339.597656 459.261719 " fill-opacity="1" fill-rule="nonzero"/><path fill="#ffffff" d="M 545.207031 562.066406 L 668.574219 562.066406 L 668.574219 644.308594 L 545.207031 644.308594 Z M 545.207031 562.066406 " fill-opacity="1" fill-rule="nonzero"/><path fill="#788ace" d="M 668.574219 664.871094 L 545.207031 664.871094 C 544.535156 664.871094 543.863281 664.839844 543.191406 664.773438 C 542.523438 664.707031 541.855469 664.605469 541.195312 664.476562 C 540.535156 664.34375 539.882812 664.179688 539.238281 663.984375 C 538.59375 663.789062 537.960938 663.5625 537.339844 663.304688 C 536.71875 663.046875 536.109375 662.761719 535.515625 662.441406 C 534.921875 662.125 534.34375 661.78125 533.785156 661.40625 C 533.226562 661.03125 532.683594 660.632812 532.164062 660.203125 C 531.644531 659.777344 531.144531 659.324219 530.667969 658.847656 C 530.191406 658.371094 529.742188 657.875 529.3125 657.355469 C 528.886719 656.832031 528.488281 656.292969 528.113281 655.734375 C 527.738281 655.171875 527.390625 654.597656 527.074219 654.003906 C 526.757812 653.410156 526.46875 652.800781 526.210938 652.179688 C 525.953125 651.554688 525.726562 650.921875 525.53125 650.277344 C 525.335938 649.632812 525.171875 648.980469 525.042969 648.320312 C 524.910156 647.660156 524.8125 646.996094 524.746094 646.324219 C 524.679688 645.65625 524.648438 644.984375 524.648438 644.308594 L 524.648438 562.066406 C 524.648438 561.390625 524.679688 560.71875 524.746094 560.050781 C 524.8125 559.378906 524.910156 558.714844 525.042969 558.054688 C 525.171875 557.394531 525.335938 556.742188 525.53125 556.097656 C 525.726562 555.453125 525.953125 554.820312 526.210938 554.199219 C 526.46875 553.574219 526.757812 552.96875 527.074219 552.375 C 527.390625 551.78125 527.738281 551.203125 528.113281 550.644531 C 528.488281 550.082031 528.886719 549.542969 529.3125 549.023438 C 529.742188 548.5 530.191406 548.003906 530.667969 547.527344 C 531.144531 547.050781 531.644531 546.597656 532.164062 546.171875 C 532.683594 545.746094 533.226562 545.34375 533.785156 544.96875 C 534.34375 544.59375 534.921875 544.25 535.515625 543.933594 C 536.109375 543.613281 536.71875 543.328125 537.339844 543.070312 C 537.960938 542.8125 538.59375 542.585938 539.238281 542.390625 C 539.882812 542.195312 540.535156 542.03125 541.195312 541.898438 C 541.855469 541.769531 542.523438 541.667969 543.191406 541.605469 C 543.863281 541.539062 544.535156 541.503906 545.207031 541.503906 L 668.574219 541.503906 C 669.25 541.503906 669.917969 541.539062 670.589844 541.605469 C 671.261719 541.667969 671.925781 541.769531 672.585938 541.898438 C 673.246094 542.03125 673.898438 542.195312 674.542969 542.390625 C 675.1875 542.585938 675.820312 542.8125 676.441406 543.070312 C 677.066406 543.328125 677.671875 543.613281 678.265625 543.933594 C 678.859375 544.25 679.4375 544.59375 679.996094 544.96875 C 680.558594 545.34375 681.097656 545.746094 681.617188 546.171875 C 682.140625 546.597656 682.636719 547.050781 683.113281 547.527344 C 683.589844 548.003906 684.042969 548.5 684.46875 549.023438 C 684.894531 549.542969 685.296875 550.082031 685.671875 550.640625 C 686.042969 551.203125 686.390625 551.78125 686.707031 552.375 C 687.023438 552.96875 687.3125 553.574219 687.570312 554.195312 C 687.828125 554.820312 688.054688 555.453125 688.25 556.097656 C 688.445312 556.742188 688.609375 557.394531 688.742188 558.054688 C 688.871094 558.714844 688.972656 559.378906 689.035156 560.050781 C 689.101562 560.71875 689.136719 561.390625 689.136719 562.066406 L 689.136719 644.308594 C 689.136719 644.984375 689.101562 645.65625 689.035156 646.324219 C 688.972656 646.996094 688.871094 647.660156 688.742188 648.320312 C 688.609375 648.980469 688.445312 649.632812 688.25 650.277344 C 688.054688 650.921875 687.828125 651.554688 687.570312 652.179688 C 687.3125 652.800781 687.023438 653.410156 686.707031 654.003906 C 686.390625 654.597656 686.042969 655.171875 685.671875 655.734375 C 685.296875 656.292969 684.894531 656.832031 684.46875 657.355469 C 684.042969 657.875 683.589844 658.371094 683.113281 658.847656 C 682.636719 659.324219 682.140625 659.777344 681.617188 660.203125 C 681.097656 660.632812 680.558594 661.03125 679.996094 661.40625 C 679.4375 661.78125 678.859375 662.125 678.265625 662.441406 C 677.671875 662.761719 677.066406 663.046875 676.441406 663.304688 C 675.820312 663.5625 675.1875 663.789062 674.542969 663.984375 C 673.898438 664.179688 673.246094 664.34375 672.585938 664.476562 C 671.925781 664.605469 671.261719 664.707031 670.589844 664.773438 C 669.917969 664.839844 669.25 664.871094 668.574219 664.871094 Z M 565.769531 623.75 L 648.011719 623.75 L 648.011719 582.625 L 565.769531 582.625 Z M 565.769531 623.75 " fill-opacity="1" fill-rule="nonzero"/><path fill="#ffffff" d="M 545.207031 479.820312 L 668.574219 479.820312 L 668.574219 562.066406 L 545.207031 562.066406 Z M 545.207031 479.820312 " fill-opacity="1" fill-rule="nonzero"/><path fill="#788ace" d="M 668.574219 582.625 L 545.207031 582.625 C 544.535156 582.625 543.863281 582.59375 543.191406 582.527344 C 542.523438 582.460938 541.855469 582.363281 541.195312 582.230469 C 540.535156 582.101562 539.882812 581.9375 539.238281 581.742188 C 538.59375 581.546875 537.960938 581.320312 537.339844 581.0625 C 536.71875 580.804688 536.109375 580.515625 535.515625 580.199219 C 534.921875 579.882812 534.34375 579.535156 533.785156 579.160156 C 533.226562 578.789062 532.683594 578.386719 532.164062 577.960938 C 531.644531 577.53125 531.144531 577.082031 530.667969 576.605469 C 530.191406 576.128906 529.742188 575.628906 529.3125 575.109375 C 528.886719 574.589844 528.488281 574.046875 528.113281 573.488281 C 527.738281 572.929688 527.390625 572.351562 527.074219 571.757812 C 526.757812 571.164062 526.46875 570.554688 526.210938 569.933594 C 525.953125 569.3125 525.726562 568.679688 525.53125 568.035156 C 525.335938 567.390625 525.171875 566.738281 525.042969 566.078125 C 524.910156 565.417969 524.8125 564.75 524.746094 564.082031 C 524.679688 563.410156 524.648438 562.738281 524.648438 562.066406 L 524.648438 479.820312 C 524.648438 479.148438 524.679688 478.476562 524.746094 477.804688 C 524.8125 477.136719 524.910156 476.46875 525.042969 475.808594 C 525.171875 475.148438 525.335938 474.496094 525.53125 473.851562 C 525.726562 473.207031 525.953125 472.574219 526.210938 471.953125 C 526.46875 471.332031 526.757812 470.722656 527.074219 470.128906 C 527.390625 469.535156 527.738281 468.957031 528.113281 468.398438 C 528.488281 467.839844 528.886719 467.296875 529.3125 466.777344 C 529.742188 466.257812 530.191406 465.757812 530.667969 465.28125 C 531.144531 464.804688 531.644531 464.355469 532.164062 463.925781 C 532.683594 463.5 533.226562 463.097656 533.785156 462.726562 C 534.34375 462.351562 534.921875 462.003906 535.515625 461.6875 C 536.109375 461.371094 536.71875 461.082031 537.339844 460.824219 C 537.960938 460.566406 538.59375 460.339844 539.238281 460.144531 C 539.882812 459.949219 540.535156 459.785156 541.195312 459.65625 C 541.855469 459.523438 542.523438 459.425781 543.191406 459.359375 C 543.863281 459.292969 544.535156 459.261719 545.207031 459.261719 L 668.574219 459.261719 C 669.25 459.261719 669.917969 459.292969 670.589844 459.359375 C 671.261719 459.425781 671.925781 459.523438 672.585938 459.65625 C 673.246094 459.785156 673.898438 459.949219 674.542969 460.144531 C 675.1875 460.339844 675.820312 460.566406 676.441406 460.824219 C 677.066406 461.082031 677.671875 461.371094 678.265625 461.6875 C 678.859375 462.003906 679.4375 462.351562 679.996094 462.726562 C 680.558594 463.097656 681.097656 463.5 681.617188 463.925781 C 682.140625 464.355469 682.636719 464.804688 683.113281 465.28125 C 683.589844 465.757812 684.042969 466.257812 684.46875 466.777344 C 684.894531 467.296875 685.296875 467.839844 685.671875 468.398438 C 686.042969 468.957031 686.390625 469.535156 686.707031 470.128906 C 687.023438 470.722656 687.3125 471.332031 687.570312 471.953125 C 687.828125 472.574219 688.054688 473.207031 688.25 473.851562 C 688.445312 474.496094 688.609375 475.148438 688.742188 475.808594 C 688.871094 476.46875 688.972656 477.136719 689.035156 477.804688 C 689.101562 478.476562 689.136719 479.148438 689.136719 479.820312 L 689.136719 562.066406 C 689.136719 562.738281 689.101562 563.410156 689.035156 564.082031 C 688.972656 564.75 688.871094 565.417969 688.742188 566.078125 C 688.609375 566.738281 688.445312 567.390625 688.25 568.035156 C 688.054688 568.679688 687.828125 569.3125 687.570312 569.933594 C 687.3125 570.554688 687.023438 571.164062 686.707031 571.757812 C 686.390625 572.351562 686.042969 572.929688 685.671875 573.488281 C 685.296875 574.046875 684.894531 574.589844 684.46875 575.109375 C 684.042969 575.628906 683.589844 576.128906 683.113281 576.605469 C 682.636719 577.082031 682.140625 577.53125 681.617188 577.960938 C 681.097656 578.386719 680.558594 578.789062 679.996094 579.160156 C 679.4375 579.535156 678.859375 579.882812 678.265625 580.199219 C 677.671875 580.515625 677.066406 580.804688 676.441406 581.0625 C 675.820312 581.320312 675.1875 581.546875 674.542969 581.742188 C 673.898438 581.9375 673.246094 582.101562 672.585938 582.230469 C 671.925781 582.363281 671.261719 582.460938 670.589844 582.527344 C 669.917969 582.59375 669.25 582.625 668.574219 582.625 Z M 565.769531 541.503906 L 648.011719 541.503906 L 648.011719 500.382812 L 565.769531 500.382812 Z M 565.769531 541.503906 " fill-opacity="1" fill-rule="nonzero"/><path fill="#ffffff" d="M 545.207031 397.578125 L 668.574219 397.578125 L 668.574219 479.820312 L 545.207031 479.820312 Z M 545.207031 397.578125 " fill-opacity="1" fill-rule="nonzero"/><path fill="#788ace" d="M 668.574219 500.382812 L 545.207031 500.382812 C 544.535156 500.382812 543.863281 500.347656 543.191406 500.285156 C 542.523438 500.21875 541.855469 500.117188 541.195312 499.988281 C 540.535156 499.855469 539.882812 499.691406 539.238281 499.496094 C 538.59375 499.300781 537.960938 499.074219 537.339844 498.816406 C 536.71875 498.558594 536.109375 498.273438 535.515625 497.953125 C 534.921875 497.636719 534.34375 497.292969 533.785156 496.917969 C 533.226562 496.542969 532.683594 496.140625 532.164062 495.714844 C 531.644531 495.289062 531.144531 494.835938 530.667969 494.359375 C 530.191406 493.882812 529.742188 493.386719 529.3125 492.863281 C 528.886719 492.34375 528.488281 491.804688 528.113281 491.246094 C 527.738281 490.683594 527.390625 490.109375 527.074219 489.515625 C 526.757812 488.917969 526.46875 488.3125 526.210938 487.691406 C 525.953125 487.066406 525.726562 486.433594 525.53125 485.789062 C 525.335938 485.144531 525.171875 484.492188 525.042969 483.832031 C 524.910156 483.171875 524.8125 482.507812 524.746094 481.835938 C 524.679688 481.167969 524.648438 480.496094 524.648438 479.820312 L 524.648438 397.578125 C 524.648438 396.902344 524.679688 396.230469 524.746094 395.5625 C 524.8125 394.890625 524.910156 394.226562 525.042969 393.566406 C 525.171875 392.90625 525.335938 392.253906 525.53125 391.609375 C 525.726562 390.964844 525.953125 390.332031 526.210938 389.707031 C 526.46875 389.085938 526.757812 388.480469 527.074219 387.882812 C 527.390625 387.289062 527.738281 386.714844 528.113281 386.152344 C 528.488281 385.59375 528.886719 385.054688 529.3125 384.535156 C 529.742188 384.011719 530.191406 383.515625 530.667969 383.039062 C 531.144531 382.5625 531.644531 382.109375 532.164062 381.683594 C 532.683594 381.257812 533.226562 380.855469 533.785156 380.480469 C 534.34375 380.105469 534.921875 379.761719 535.515625 379.445312 C 536.109375 379.125 536.71875 378.839844 537.339844 378.582031 C 537.960938 378.324219 538.59375 378.097656 539.238281 377.902344 C 539.882812 377.707031 540.535156 377.542969 541.195312 377.410156 C 541.855469 377.28125 542.523438 377.179688 543.191406 377.113281 C 543.863281 377.050781 544.535156 377.015625 545.207031 377.015625 L 668.574219 377.015625 C 669.25 377.015625 669.917969 377.050781 670.589844 377.113281 C 671.261719 377.179688 671.925781 377.28125 672.585938 377.410156 C 673.246094 377.542969 673.898438 377.707031 674.542969 377.902344 C 675.1875 378.097656 675.820312 378.324219 676.441406 378.582031 C 677.066406 378.839844 677.671875 379.125 678.265625 379.445312 C 678.859375 379.761719 679.4375 380.105469 679.996094 380.480469 C 680.558594 380.855469 681.097656 381.257812 681.617188 381.683594 C 682.140625 382.109375 682.636719 382.5625 683.113281 383.039062 C 683.589844 383.515625 684.042969 384.011719 684.46875 384.535156 C 684.894531 385.054688 685.296875 385.59375 685.671875 386.152344 C 686.042969 386.714844 686.390625 387.289062 686.707031 387.882812 C 687.023438 388.476562 687.3125 389.085938 687.570312 389.707031 C 687.828125 390.332031 688.054688 390.964844 688.25 391.609375 C 688.445312 392.253906 688.609375 392.90625 688.742188 393.566406 C 688.871094 394.226562 688.972656 394.890625 689.035156 395.5625 C 689.101562 396.230469 689.136719 396.902344 689.136719 397.578125 L 689.136719 479.820312 C 689.136719 480.496094 689.101562 481.167969 689.035156 481.835938 C 688.972656 482.507812 688.871094 483.171875 688.742188 483.832031 C 688.609375 484.492188 688.445312 485.144531 688.25 485.789062 C 688.054688 486.433594 687.828125 487.066406 687.570312 487.691406 C 687.3125 488.3125 687.023438 488.917969 686.707031 489.515625 C 686.390625 490.109375 686.042969 490.683594 685.671875 491.246094 C 685.296875 491.804688 684.894531 492.34375 684.46875 492.863281 C 684.042969 493.386719 683.589844 493.882812 683.113281 494.359375 C 682.636719 494.835938 682.140625 495.289062 681.617188 495.714844 C 681.097656 496.140625 680.558594 496.542969 679.996094 496.917969 C 679.4375 497.292969 678.859375 497.636719 678.265625 497.953125 C 677.671875 498.273438 677.066406 498.558594 676.441406 498.816406 C 675.820312 499.074219 675.1875 499.300781 674.542969 499.496094 C 673.898438 499.691406 673.246094 499.855469 672.585938 499.988281 C 671.925781 500.117188 671.261719 500.21875 670.589844 500.285156 C 669.917969 500.347656 669.25 500.382812 668.574219 500.382812 Z M 565.769531 459.261719 L 648.011719 459.261719 L 648.011719 418.136719 L 565.769531 418.136719 Z M 565.769531 459.261719 " fill-opacity="1" fill-rule="nonzero"/><path fill="#ffffff" d="M 545.207031 315.332031 L 668.574219 315.332031 L 668.574219 397.578125 L 545.207031 397.578125 Z M 545.207031 315.332031 " fill-opacity="1" fill-rule="nonzero"/><path fill="#788ace" d="M 668.574219 418.136719 L 545.207031 418.136719 C 544.535156 418.136719 543.863281 418.105469 543.191406 418.039062 C 542.523438 417.972656 541.855469 417.875 541.195312 417.742188 C 540.535156 417.613281 539.882812 417.449219 539.238281 417.253906 C 538.59375 417.058594 537.960938 416.832031 537.339844 416.574219 C 536.71875 416.316406 536.109375 416.027344 535.515625 415.710938 C 534.921875 415.394531 534.34375 415.046875 533.785156 414.671875 C 533.226562 414.300781 532.683594 413.898438 532.164062 413.472656 C 531.644531 413.042969 531.144531 412.59375 530.667969 412.117188 C 530.191406 411.640625 529.742188 411.140625 529.3125 410.621094 C 528.886719 410.101562 528.488281 409.558594 528.113281 409 C 527.738281 408.441406 527.390625 407.863281 527.074219 407.269531 C 526.757812 406.675781 526.46875 406.066406 526.210938 405.445312 C 525.953125 404.824219 525.726562 404.191406 525.53125 403.546875 C 525.335938 402.902344 525.171875 402.25 525.042969 401.589844 C 524.910156 400.929688 524.8125 400.261719 524.746094 399.59375 C 524.679688 398.921875 524.648438 398.25 524.648438 397.578125 L 524.648438 315.332031 C 524.648438 314.660156 524.679688 313.988281 524.746094 313.316406 C 524.8125 312.648438 524.910156 311.980469 525.042969 311.320312 C 525.171875 310.660156 525.335938 310.007812 525.53125 309.363281 C 525.726562 308.71875 525.953125 308.085938 526.210938 307.464844 C 526.46875 306.84375 526.757812 306.234375 527.074219 305.640625 C 527.390625 305.046875 527.738281 304.46875 528.113281 303.910156 C 528.488281 303.351562 528.886719 302.808594 529.3125 302.289062 C 529.742188 301.769531 530.191406 301.269531 530.667969 300.792969 C 531.144531 300.316406 531.644531 299.867188 532.164062 299.4375 C 532.683594 299.011719 533.226562 298.609375 533.785156 298.238281 C 534.34375 297.863281 534.921875 297.515625 535.515625 297.199219 C 536.109375 296.882812 536.71875 296.59375 537.339844 296.335938 C 537.960938 296.078125 538.59375 295.851562 539.238281 295.65625 C 539.882812 295.460938 540.535156 295.296875 541.195312 295.167969 C 541.855469 295.035156 542.523438 294.9375 543.191406 294.871094 C 543.863281 294.804688 544.535156 294.773438 545.207031 294.773438 L 668.574219 294.773438 C 669.25 294.773438 669.917969 294.804688 670.589844 294.871094 C 671.261719 294.9375 671.925781 295.035156 672.585938 295.167969 C 673.246094 295.296875 673.898438 295.460938 674.542969 295.65625 C 675.1875 295.851562 675.820312 296.078125 676.441406 296.335938 C 677.066406 296.59375 677.671875 296.882812 678.265625 297.199219 C 678.859375 297.515625 679.4375 297.863281 679.996094 298.238281 C 680.558594 298.609375 681.097656 299.011719 681.617188 299.4375 C 682.140625 299.867188 682.636719 300.316406 683.113281 300.792969 C 683.589844 301.269531 684.042969 301.769531 684.46875 302.289062 C 684.894531 302.808594 685.296875 303.351562 685.671875 303.910156 C 686.042969 304.46875 686.390625 305.046875 686.707031 305.640625 C 687.023438 306.234375 687.3125 306.84375 687.570312 307.464844 C 687.828125 308.085938 688.054688 308.71875 688.25 309.363281 C 688.445312 310.007812 688.609375 310.660156 688.742188 311.320312 C 688.871094 311.980469 688.972656 312.648438 689.035156 313.316406 C 689.101562 313.988281 689.136719 314.660156 689.136719 315.332031 L 689.136719 397.578125 C 689.136719 398.25 689.101562 398.921875 689.035156 399.59375 C 688.972656 400.261719 688.871094 400.929688 688.742188 401.589844 C 688.609375 402.25 688.445312 402.902344 688.25 403.546875 C 688.054688 404.191406 687.828125 404.824219 687.570312 405.445312 C 687.3125 406.066406 687.023438 406.675781 686.707031 407.269531 C 686.390625 407.863281 686.042969 408.441406 685.671875 409 C 685.296875 409.558594 684.894531 410.101562 684.46875 410.621094 C 684.042969 411.140625 683.589844 411.640625 683.113281 412.117188 C 682.636719 412.59375 682.140625 413.042969 681.617188 413.472656 C 681.097656 413.898438 680.558594 414.300781 679.996094 414.671875 C 679.4375 415.046875 678.859375 415.394531 678.265625 415.710938 C 677.671875 416.027344 677.066406 416.316406 676.441406 416.574219 C 675.820312 416.832031 675.1875 417.058594 674.542969 417.253906 C 673.898438 417.449219 673.246094 417.613281 672.585938 417.742188 C 671.925781 417.875 671.261719 417.972656 670.589844 418.039062 C 669.917969 418.105469 669.25 418.136719 668.574219 418.136719 Z M 565.769531 377.015625 L 648.011719 377.015625 L 648.011719 335.894531 L 565.769531 335.894531 Z M 565.769531 377.015625 " fill-opacity="1" fill-rule="nonzero"/><g clip-path="url(#b0324a3d32)"><path fill="#788ace" d="M 258.644531 335.894531 C 254.882812 335.875 251.386719 334.894531 248.160156 332.957031 L 155.195312 277.941406 L 104.289062 311.867188 C 103.730469 312.261719 103.152344 312.628906 102.558594 312.964844 C 101.960938 313.304688 101.351562 313.609375 100.722656 313.886719 C 100.097656 314.164062 99.460938 314.40625 98.808594 314.621094 C 98.15625 314.832031 97.496094 315.011719 96.828125 315.160156 C 96.160156 315.304688 95.484375 315.417969 94.804688 315.496094 C 94.125 315.578125 93.441406 315.621094 92.757812 315.632812 C 92.074219 315.644531 91.390625 315.621094 90.707031 315.5625 C 90.023438 315.503906 89.347656 315.414062 88.671875 315.289062 C 88 315.164062 87.335938 315.007812 86.675781 314.816406 C 86.019531 314.625 85.375 314.398438 84.738281 314.144531 C 84.101562 313.886719 83.484375 313.601562 82.875 313.28125 C 82.269531 312.964844 81.679688 312.617188 81.109375 312.238281 C 80.539062 311.863281 79.984375 311.457031 79.453125 311.027344 C 78.921875 310.59375 78.414062 310.136719 77.929688 309.65625 C 77.445312 309.171875 76.984375 308.664062 76.546875 308.136719 C 76.113281 307.609375 75.707031 307.058594 75.324219 306.488281 C 74.945312 305.921875 74.59375 305.332031 74.273438 304.726562 C 73.949219 304.125 73.660156 303.503906 73.402344 302.871094 C 73.140625 302.238281 72.914062 301.59375 72.71875 300.9375 C 72.523438 300.28125 72.359375 299.613281 72.234375 298.941406 C 72.105469 298.269531 72.007812 297.59375 71.949219 296.910156 C 71.886719 296.230469 71.859375 295.546875 71.867188 294.859375 C 71.875 294.175781 71.914062 293.492188 71.988281 292.8125 C 72.066406 292.132812 72.175781 291.457031 72.316406 290.785156 C 72.460938 290.117188 72.636719 289.457031 72.84375 288.804688 C 73.054688 288.152344 73.292969 287.511719 73.566406 286.882812 C 73.839844 286.253906 74.144531 285.644531 74.476562 285.046875 C 74.8125 284.445312 75.175781 283.867188 75.566406 283.304688 C 75.957031 282.746094 76.375 282.203125 76.824219 281.683594 C 77.269531 281.164062 77.738281 280.667969 78.234375 280.195312 C 78.730469 279.722656 79.25 279.277344 79.789062 278.855469 C 80.328125 278.433594 80.886719 278.042969 81.46875 277.675781 L 143.152344 236.554688 C 143.953125 236.019531 144.789062 235.542969 145.65625 235.125 C 146.523438 234.710938 147.417969 234.355469 148.335938 234.0625 C 149.253906 233.773438 150.1875 233.546875 151.136719 233.386719 C 152.089844 233.226562 153.042969 233.132812 154.007812 233.105469 C 154.972656 233.082031 155.929688 233.121094 156.886719 233.230469 C 157.84375 233.339844 158.789062 233.515625 159.722656 233.757812 C 160.65625 234 161.566406 234.304688 162.457031 234.675781 C 163.34375 235.046875 164.203125 235.476562 165.035156 235.96875 L 255.296875 289.484375 L 366.03125 177.515625 C 366.789062 176.75 367.601562 176.046875 368.472656 175.40625 C 369.339844 174.769531 370.25 174.203125 371.207031 173.707031 C 372.164062 173.210938 373.15625 172.792969 374.175781 172.453125 C 375.199219 172.117188 376.242188 171.859375 377.304688 171.683594 C 378.367188 171.507812 379.4375 171.414062 380.515625 171.40625 C 381.59375 171.398438 382.664062 171.476562 383.730469 171.636719 C 384.796875 171.800781 385.839844 172.042969 386.867188 172.367188 C 387.894531 172.691406 388.890625 173.097656 389.855469 173.578125 L 498.679688 227.976562 L 591.03125 117.125 L 654.035156 54.058594 C 654.515625 53.582031 655.015625 53.128906 655.539062 52.699219 C 656.0625 52.269531 656.605469 51.867188 657.167969 51.492188 C 657.730469 51.117188 658.308594 50.769531 658.90625 50.449219 C 659.503906 50.132812 660.113281 49.84375 660.738281 49.585938 C 661.363281 49.324219 662 49.097656 662.648438 48.902344 C 663.296875 48.707031 663.953125 48.542969 664.617188 48.410156 C 665.277344 48.277344 665.949219 48.179688 666.621094 48.113281 C 667.292969 48.046875 667.96875 48.015625 668.644531 48.015625 C 669.324219 48.015625 669.996094 48.046875 670.671875 48.113281 C 671.34375 48.179688 672.011719 48.28125 672.675781 48.414062 C 673.339844 48.542969 673.996094 48.707031 674.644531 48.90625 C 675.289062 49.101562 675.925781 49.328125 676.550781 49.589844 C 677.175781 49.847656 677.789062 50.136719 678.382812 50.457031 C 678.980469 50.773438 679.5625 51.121094 680.125 51.5 C 680.6875 51.875 681.230469 52.277344 681.75 52.707031 C 682.273438 53.136719 682.777344 53.589844 683.253906 54.066406 C 683.734375 54.546875 684.1875 55.046875 684.617188 55.570312 C 685.042969 56.09375 685.449219 56.636719 685.824219 57.199219 C 686.199219 57.761719 686.546875 58.339844 686.867188 58.9375 C 687.183594 59.535156 687.472656 60.144531 687.734375 60.769531 C 687.992188 61.394531 688.21875 62.03125 688.417969 62.679688 C 688.613281 63.324219 688.777344 63.980469 688.910156 64.644531 C 689.042969 65.308594 689.140625 65.976562 689.207031 66.652344 C 689.273438 67.324219 689.308594 68 689.308594 68.675781 C 689.308594 69.351562 689.273438 70.027344 689.207031 70.699219 C 689.140625 71.375 689.042969 72.042969 688.910156 72.707031 C 688.777344 73.371094 688.613281 74.023438 688.417969 74.671875 C 688.222656 75.320312 687.996094 75.957031 687.738281 76.582031 C 687.476562 77.207031 687.1875 77.816406 686.871094 78.414062 C 686.550781 79.011719 686.203125 79.589844 685.828125 80.15625 C 685.453125 80.71875 685.050781 81.261719 684.621094 81.785156 C 684.191406 82.308594 683.738281 82.808594 683.261719 83.285156 L 621.578125 144.96875 L 519.890625 266.808594 C 519.152344 267.691406 518.347656 268.507812 517.472656 269.257812 C 516.601562 270.007812 515.667969 270.679688 514.683594 271.269531 C 513.695312 271.863281 512.667969 272.371094 511.597656 272.789062 C 510.527344 273.210938 509.425781 273.539062 508.300781 273.773438 C 507.175781 274.007812 506.035156 274.148438 504.886719 274.195312 C 503.738281 274.238281 502.589844 274.1875 501.449219 274.039062 C 500.308594 273.890625 499.1875 273.648438 498.085938 273.3125 C 496.988281 272.976562 495.921875 272.550781 494.890625 272.035156 L 384.859375 217.023438 L 273.242188 329.785156 C 272.289062 330.75 271.25 331.613281 270.125 332.375 C 269 333.132812 267.808594 333.777344 266.554688 334.300781 C 265.304688 334.824219 264.011719 335.21875 262.679688 335.488281 C 261.347656 335.757812 260.003906 335.890625 258.644531 335.894531 Z M 258.644531 335.894531 " fill-opacity="1" fill-rule="nonzero"/></g><path fill="#788ace" d="M 668.574219 171.40625 C 667.902344 171.40625 667.230469 171.371094 666.558594 171.304688 C 665.890625 171.242188 665.222656 171.140625 664.5625 171.011719 C 663.902344 170.878906 663.25 170.714844 662.605469 170.519531 C 661.960938 170.324219 661.328125 170.097656 660.707031 169.839844 C 660.085938 169.582031 659.476562 169.292969 658.882812 168.976562 C 658.289062 168.660156 657.710938 168.3125 657.152344 167.941406 C 656.589844 167.566406 656.050781 167.164062 655.53125 166.738281 C 655.011719 166.3125 654.511719 165.859375 654.035156 165.382812 C 653.558594 164.90625 653.109375 164.410156 652.679688 163.886719 C 652.253906 163.367188 651.851562 162.828125 651.480469 162.265625 C 651.105469 161.707031 650.757812 161.128906 650.441406 160.535156 C 650.125 159.941406 649.835938 159.335938 649.578125 158.710938 C 649.320312 158.089844 649.09375 157.457031 648.898438 156.8125 C 648.703125 156.167969 648.539062 155.515625 648.410156 154.855469 C 648.277344 154.195312 648.179688 153.53125 648.113281 152.859375 C 648.046875 152.1875 648.011719 151.519531 648.011719 150.84375 L 648.011719 89.160156 L 586.332031 89.160156 C 585.65625 89.160156 584.984375 89.128906 584.316406 89.0625 C 583.644531 88.996094 582.980469 88.898438 582.320312 88.765625 C 581.660156 88.632812 581.007812 88.472656 580.363281 88.277344 C 579.71875 88.082031 579.085938 87.855469 578.460938 87.597656 C 577.839844 87.339844 577.230469 87.050781 576.636719 86.734375 C 576.042969 86.414062 575.46875 86.070312 574.90625 85.695312 C 574.347656 85.320312 573.808594 84.921875 573.285156 84.492188 C 572.765625 84.066406 572.269531 83.613281 571.792969 83.140625 C 571.316406 82.664062 570.863281 82.164062 570.4375 81.644531 C 570.007812 81.125 569.609375 80.582031 569.234375 80.023438 C 568.859375 79.464844 568.515625 78.886719 568.195312 78.292969 C 567.878906 77.699219 567.59375 77.089844 567.335938 76.46875 C 567.078125 75.847656 566.851562 75.210938 566.65625 74.570312 C 566.460938 73.925781 566.296875 73.273438 566.164062 72.609375 C 566.03125 71.949219 565.933594 71.285156 565.867188 70.617188 C 565.800781 69.945312 565.769531 69.273438 565.769531 68.601562 C 565.769531 67.925781 565.800781 67.253906 565.867188 66.585938 C 565.933594 65.914062 566.03125 65.25 566.164062 64.589844 C 566.296875 63.929688 566.460938 63.277344 566.65625 62.632812 C 566.851562 61.988281 567.078125 61.355469 567.335938 60.730469 C 567.59375 60.109375 567.878906 59.5 568.195312 58.90625 C 568.515625 58.3125 568.859375 57.738281 569.234375 57.175781 C 569.609375 56.617188 570.007812 56.078125 570.4375 55.554688 C 570.863281 55.035156 571.316406 54.539062 571.792969 54.0625 C 572.269531 53.585938 572.765625 53.132812 573.285156 52.707031 C 573.808594 52.277344 574.347656 51.878906 574.90625 51.503906 C 575.46875 51.128906 576.042969 50.785156 576.636719 50.464844 C 577.230469 50.148438 577.839844 49.863281 578.460938 49.605469 C 579.085938 49.347656 579.71875 49.121094 580.363281 48.925781 C 581.007812 48.730469 581.660156 48.566406 582.320312 48.433594 C 582.980469 48.300781 583.644531 48.203125 584.316406 48.136719 C 584.984375 48.070312 585.65625 48.039062 586.332031 48.039062 L 668.574219 48.039062 C 669.25 48.039062 669.917969 48.070312 670.589844 48.136719 C 671.261719 48.203125 671.925781 48.300781 672.585938 48.433594 C 673.246094 48.566406 673.898438 48.730469 674.542969 48.925781 C 675.1875 49.121094 675.820312 49.347656 676.441406 49.605469 C 677.066406 49.863281 677.671875 50.148438 678.265625 50.464844 C 678.859375 50.785156 679.4375 51.128906 679.996094 51.503906 C 680.558594 51.878906 681.097656 52.277344 681.617188 52.707031 C 682.140625 53.132812 682.636719 53.585938 683.113281 54.0625 C 683.589844 54.539062 684.042969 55.035156 684.46875 55.554688 C 684.894531 56.078125 685.296875 56.617188 685.671875 57.175781 C 686.042969 57.738281 686.390625 58.3125 686.707031 58.90625 C 687.023438 59.5 687.3125 60.109375 687.570312 60.730469 C 687.828125 61.355469 688.054688 61.988281 688.25 62.632812 C 688.445312 63.277344 688.609375 63.929688 688.742188 64.589844 C 688.871094 65.25 688.972656 65.914062 689.035156 66.585938 C 689.101562 67.253906 689.136719 67.925781 689.136719 68.601562 L 689.136719 150.84375 C 689.136719 151.519531 689.101562 152.1875 689.035156 152.859375 C 688.972656 153.53125 688.871094 154.195312 688.742188 154.855469 C 688.609375 155.515625 688.445312 156.167969 688.25 156.8125 C 688.054688 157.457031 687.828125 158.089844 687.570312 158.710938 C 687.3125 159.335938 687.023438 159.941406 686.707031 160.535156 C 686.390625 161.128906 686.042969 161.707031 685.671875 162.265625 C 685.296875 162.828125 684.894531 163.367188 684.46875 163.886719 C 684.042969 164.410156 683.589844 164.90625 683.113281 165.382812 C 682.636719 165.859375 682.140625 166.3125 681.617188 166.738281 C 681.097656 167.164062 680.558594 167.566406 679.996094 167.941406 C 679.4375 168.3125 678.859375 168.660156 678.265625 168.976562 C 677.671875 169.292969 677.066406 169.582031 676.441406 169.839844 C 675.820312 170.097656 675.1875 170.324219 674.542969 170.519531 C 673.898438 170.714844 673.246094 170.878906 672.585938 171.011719 C 671.925781 171.140625 671.261719 171.242188 670.589844 171.304688 C 669.917969 171.371094 669.25 171.40625 668.574219 171.40625 Z M 668.574219 171.40625 " fill-opacity="1" fill-rule="nonzero"/></svg>