<svg xmlns="http://www.w3.org/2000/svg" xmlns:xlink="http://www.w3.org/1999/xlink" width="500" zoomAndPan="magnify" viewBox="0 0 375 374.999991" height="500" preserveAspectRatio="xMidYMid meet" version="1.0"><defs><g/></defs><g fill="#5271ff" fill-opacity="1"><g transform="translate(-0.245253, 213.300344)"><g><path d="M 64.953125 0 L 62.46875 -10.96875 C 56.8125 -2.488281 48.617188 1.75 37.890625 1.75 C 27.453125 1.75 19.40625 -1.660156 13.75 -8.484375 C 8.09375 -15.304688 5.265625 -25.398438 5.265625 -38.765625 C 5.265625 -52.035156 8.09375 -62.054688 13.75 -68.828125 C 19.40625 -75.609375 27.453125 -79 37.890625 -79 C 46.765625 -79 53.984375 -76.023438 59.546875 -70.078125 L 59.546875 -106.0625 L 88.65625 -106.0625 L 88.65625 0 Z M 46.96875 -57.5 C 38.570312 -57.5 34.375 -52.472656 34.375 -42.421875 L 34.375 -34.671875 C 34.375 -24.722656 38.570312 -19.75 46.96875 -19.75 C 51.25 -19.75 54.460938 -21.257812 56.609375 -24.28125 C 58.753906 -27.3125 59.828125 -31.265625 59.828125 -36.140625 L 59.828125 -40.96875 C 59.828125 -45.84375 58.753906 -49.816406 56.609375 -52.890625 C 54.460938 -55.960938 51.25 -57.5 46.96875 -57.5 Z M 46.96875 -57.5 "/></g></g></g><g fill="#5271ff" fill-opacity="1"><g transform="translate(88.990813, 213.300344)"><g><path d="M 48.71875 -79 C 62.863281 -79 73.664062 -75.679688 81.125 -69.046875 C 88.582031 -62.421875 92.3125 -52.28125 92.3125 -38.625 L 92.3125 -33.640625 L 34.375 -33.640625 C 34.375 -28.085938 35.617188 -23.894531 38.109375 -21.0625 C 40.597656 -18.238281 44.523438 -16.828125 49.890625 -16.828125 C 54.765625 -16.828125 58.347656 -17.847656 60.640625 -19.890625 C 62.929688 -21.941406 64.078125 -24.675781 64.078125 -28.09375 L 92.3125 -28.09375 C 92.3125 -18.726562 88.75 -11.410156 81.625 -6.140625 C 74.507812 -0.878906 64.125 1.75 50.46875 1.75 C 36.132812 1.75 25.015625 -1.585938 17.109375 -8.265625 C 9.210938 -14.941406 5.265625 -25.0625 5.265625 -38.625 C 5.265625 -51.882812 9.113281 -61.925781 16.8125 -68.75 C 24.519531 -75.582031 35.15625 -79 48.71875 -79 Z M 49.890625 -60.421875 C 40.722656 -60.421875 35.601562 -56.082031 34.53125 -47.40625 L 62.90625 -47.40625 C 62.90625 -51.394531 61.757812 -54.5625 59.46875 -56.90625 C 57.175781 -59.25 53.984375 -60.421875 49.890625 -60.421875 Z M 49.890625 -60.421875 "/></g></g></g><g fill="#5271ff" fill-opacity="1"><g transform="translate(178.22688, 213.300344)"><g><path d="M 38.03125 -70.078125 C 43.59375 -76.023438 50.8125 -79 59.6875 -79 C 70.125 -79 78.171875 -75.609375 83.828125 -68.828125 C 89.484375 -62.054688 92.3125 -52.035156 92.3125 -38.765625 C 92.3125 -25.398438 89.484375 -15.304688 83.828125 -8.484375 C 78.171875 -1.660156 70.125 1.75 59.6875 1.75 C 48.957031 1.75 40.765625 -2.488281 35.109375 -10.96875 L 32.625 0 L 8.921875 0 L 8.921875 -106.0625 L 38.03125 -106.0625 Z M 50.625 -57.5 C 46.332031 -57.5 43.113281 -55.960938 40.96875 -52.890625 C 38.820312 -49.816406 37.75 -45.84375 37.75 -40.96875 L 37.75 -36.140625 C 37.75 -31.265625 38.820312 -27.3125 40.96875 -24.28125 C 43.113281 -21.257812 46.332031 -19.75 50.625 -19.75 C 59.007812 -19.75 63.203125 -24.722656 63.203125 -34.671875 L 63.203125 -42.421875 C 63.203125 -52.472656 59.007812 -57.5 50.625 -57.5 Z M 50.625 -57.5 "/></g></g></g><g fill="#5271ff" fill-opacity="1"><g transform="translate(267.462946, 213.300344)"><g><path d="M 60.28125 -77.25 L 60.28125 -57.5 L 43.890625 -57.5 L 43.890625 -28.09375 C 43.890625 -24.582031 44.472656 -22.019531 45.640625 -20.40625 C 46.816406 -18.800781 48.960938 -18 52.078125 -18 L 60.28125 -18 L 60.28125 -0.875 C 57.9375 -0.09375 54.910156 0.535156 51.203125 1.015625 C 47.492188 1.503906 44.273438 1.75 41.546875 1.75 C 32.960938 1.75 26.351562 0.191406 21.71875 -2.921875 C 17.09375 -6.046875 14.78125 -11.363281 14.78125 -18.875 L 14.78125 -57.5 L 3.953125 -57.5 L 3.953125 -77.25 L 15.953125 -77.25 L 22.234375 -100.65625 L 43.890625 -100.65625 L 43.890625 -77.25 Z M 60.28125 -77.25 "/></g></g></g><g fill="#5271ff" fill-opacity="1"><g transform="translate(324.076399, 213.300344)"><g><path d="M 8.921875 0 L 8.921875 -29.109375 L 39.9375 -29.109375 L 39.9375 0 Z M 8.921875 0 "/></g></g></g></svg>