<svg xmlns="http://www.w3.org/2000/svg" xmlns:xlink="http://www.w3.org/1999/xlink" width="1024" zoomAndPan="magnify" viewBox="0 0 768 767.999994" height="1024" preserveAspectRatio="xMidYMid meet" version="1.0"><defs><clipPath id="d863944608"><path d="M 93 31.757812 L 553 31.757812 L 553 588 L 93 588 Z M 93 31.757812 " clip-rule="nonzero"/></clipPath><clipPath id="14f13c3216"><path d="M 231 135 L 691.40625 135 L 691.40625 691.007812 L 231 691.007812 Z M 231 135 " clip-rule="nonzero"/></clipPath></defs><rect x="-76.8" width="921.6" fill="#ffffff" y="-76.799999" height="921.599993" fill-opacity="1"/><rect x="-76.8" width="921.6" fill="#ffffff" y="-76.799999" height="921.599993" fill-opacity="1"/><path fill="#ffffff" d="M 103.722656 582.117188 C 100.75 582.117188 98.367188 579.734375 98.367188 576.761719 L 98.367188 42.574219 C 98.367188 39.617188 100.75 37.222656 103.722656 37.222656 L 446.238281 37.222656 C 447.5 37.222656 448.730469 37.671875 449.71875 38.507812 L 545.570312 120.511719 C 546.777344 121.53125 547.445312 123.003906 547.445312 124.582031 L 547.445312 576.761719 C 547.445312 579.734375 545.0625 582.117188 542.089844 582.117188 L 103.722656 582.117188 " fill-opacity="1" fill-rule="nonzero"/><g clip-path="url(#d863944608)"><path fill="#a6a6a6" d="M 446.238281 31.867188 L 103.722656 31.867188 C 97.804688 31.867188 93.015625 36.65625 93.015625 42.578125 L 93.015625 576.765625 C 93.015625 582.683594 97.804688 587.476562 103.722656 587.476562 L 542.089844 587.476562 C 548.007812 587.476562 552.800781 582.683594 552.800781 576.765625 L 552.800781 124.585938 C 552.800781 121.453125 551.433594 118.480469 549.050781 116.445312 L 453.199219 34.433594 C 451.246094 32.78125 448.785156 31.871094 446.238281 31.871094 Z M 446.238281 42.578125 L 542.089844 124.582031 L 542.089844 576.761719 L 103.722656 576.761719 L 103.722656 42.574219 L 446.238281 42.578125 " fill-opacity="1" fill-rule="nonzero"/></g><path fill="#788ace" d="M 178.878906 95.15625 L 178.878906 576.761719 L 574.113281 576.761719 L 574.113281 169.105469 L 542.089844 124.582031 L 487.6875 95.15625 L 178.878906 95.15625 " fill-opacity="1" fill-rule="nonzero"/><path fill="#a6a6a6" d="M 446.238281 42.578125 L 446.238281 124.582031 L 542.089844 124.582031 Z M 446.238281 42.578125 " fill-opacity="1" fill-rule="nonzero"/><path fill="#a6a6a6" d="M 394.113281 175.746094 C 394.113281 181.609375 389.371094 186.347656 383.507812 186.347656 L 248.808594 186.347656 C 242.945312 186.347656 238.207031 181.609375 238.207031 175.746094 C 238.207031 169.882812 242.945312 165.144531 248.808594 165.144531 L 383.507812 165.144531 C 389.371094 165.144531 394.113281 169.882812 394.113281 175.746094 " fill-opacity="1" fill-rule="nonzero"/><path fill="#a6a6a6" d="M 480.269531 229.320312 C 480.269531 235.183594 475.503906 239.894531 469.667969 239.894531 L 176.144531 239.894531 C 170.28125 239.894531 165.542969 235.183594 165.542969 229.320312 C 165.542969 223.457031 170.28125 218.71875 176.144531 218.71875 L 469.667969 218.71875 C 475.503906 218.71875 480.269531 223.457031 480.269531 229.320312 " fill-opacity="1" fill-rule="nonzero"/><path fill="#a6a6a6" d="M 480.269531 282.894531 C 480.269531 288.730469 475.503906 293.496094 469.667969 293.496094 L 176.144531 293.496094 C 170.28125 293.496094 165.542969 288.730469 165.542969 282.894531 C 165.542969 277.03125 170.28125 272.265625 176.144531 272.265625 L 469.667969 272.265625 C 475.503906 272.265625 480.269531 277.03125 480.269531 282.894531 " fill-opacity="1" fill-rule="nonzero"/><path fill="#a6a6a6" d="M 480.269531 336.441406 C 480.269531 342.304688 475.503906 347.042969 469.667969 347.042969 L 176.144531 347.042969 C 170.28125 347.042969 165.542969 342.304688 165.542969 336.441406 C 165.542969 330.605469 170.28125 325.867188 176.144531 325.867188 L 469.667969 325.867188 C 475.503906 325.867188 480.269531 330.605469 480.269531 336.441406 " fill-opacity="1" fill-rule="nonzero"/><path fill="#a6a6a6" d="M 480.269531 390.015625 C 480.269531 395.878906 475.503906 400.617188 469.667969 400.617188 L 176.144531 400.617188 C 170.28125 400.617188 165.542969 395.878906 165.542969 390.015625 C 165.542969 384.179688 170.28125 379.414062 176.144531 379.414062 L 469.667969 379.414062 C 475.503906 379.414062 480.269531 384.179688 480.269531 390.015625 " fill-opacity="1" fill-rule="nonzero"/><path fill="#a6a6a6" d="M 480.269531 443.589844 C 480.269531 449.453125 475.503906 454.191406 469.667969 454.191406 L 176.144531 454.191406 C 170.28125 454.191406 165.542969 449.453125 165.542969 443.589844 C 165.542969 437.753906 170.28125 432.988281 176.144531 432.988281 L 469.667969 432.988281 C 475.503906 432.988281 480.269531 437.753906 480.269531 443.589844 " fill-opacity="1" fill-rule="nonzero"/><path fill="#ffffff" d="M 242.011719 686 C 239.039062 686 236.65625 683.589844 236.65625 680.644531 L 236.65625 146.457031 C 236.65625 143.511719 239.039062 141.101562 242.011719 141.101562 L 584.527344 141.101562 C 585.8125 141.101562 587.042969 141.554688 588.007812 142.386719 L 683.882812 224.394531 C 685.0625 225.410156 685.757812 226.910156 685.757812 228.464844 L 685.757812 680.644531 C 685.757812 683.589844 683.347656 686 680.402344 686 L 242.011719 686 " fill-opacity="1" fill-rule="nonzero"/><g clip-path="url(#14f13c3216)"><path fill="#a6a6a6" d="M 584.527344 135.746094 L 242.011719 135.746094 C 236.09375 135.746094 231.300781 140.539062 231.300781 146.457031 L 231.300781 680.644531 C 231.300781 686.5625 236.09375 691.355469 242.011719 691.355469 L 680.402344 691.355469 C 686.292969 691.355469 691.113281 686.5625 691.113281 680.644531 L 691.113281 228.464844 C 691.113281 225.332031 689.71875 222.359375 687.335938 220.324219 L 591.488281 138.316406 C 589.53125 136.65625 587.070312 135.746094 584.527344 135.746094 Z M 584.527344 146.457031 L 680.402344 228.464844 L 680.402344 680.644531 L 242.011719 680.644531 L 242.011719 146.457031 L 584.527344 146.457031 " fill-opacity="1" fill-rule="nonzero"/></g><path fill="#788ace" d="M 602.4375 161.769531 C 634.40625 211.355469 653.09375 270.015625 653.09375 332.398438 C 653.09375 506.132812 508.113281 651.113281 334.378906 651.113281 C 302.359375 651.113281 271.355469 646.1875 242.011719 637.058594 L 242.011719 680.644531 L 680.402344 680.644531 L 680.402344 228.464844 L 602.4375 161.769531 " fill-opacity="1" fill-rule="nonzero"/><path fill="#a6a6a6" d="M 584.527344 146.457031 L 584.527344 228.464844 L 680.402344 228.464844 Z M 584.527344 146.457031 " fill-opacity="1" fill-rule="nonzero"/><path fill="#a6a6a6" d="M 532.425781 279.628906 C 532.425781 285.492188 527.6875 290.230469 521.824219 290.230469 L 387.097656 290.230469 C 381.234375 290.230469 376.496094 285.492188 376.496094 279.628906 C 376.496094 273.765625 381.234375 269.027344 387.097656 269.027344 L 521.824219 269.027344 C 527.6875 269.027344 532.425781 273.765625 532.425781 279.628906 " fill-opacity="1" fill-rule="nonzero"/><path fill="#a6a6a6" d="M 618.554688 333.203125 C 618.554688 339.066406 613.816406 343.804688 607.953125 343.804688 L 314.433594 343.804688 C 308.597656 343.804688 303.832031 339.066406 303.832031 333.203125 C 303.832031 327.339844 308.597656 322.601562 314.433594 322.601562 L 607.953125 322.601562 C 613.816406 322.601562 618.554688 327.339844 618.554688 333.203125 " fill-opacity="1" fill-rule="nonzero"/><path fill="#a6a6a6" d="M 618.554688 386.777344 C 618.554688 392.613281 613.816406 397.378906 607.953125 397.378906 L 314.433594 397.378906 C 308.597656 397.378906 303.832031 392.613281 303.832031 386.777344 C 303.832031 380.914062 308.597656 376.175781 314.433594 376.175781 L 607.953125 376.175781 C 613.816406 376.175781 618.554688 380.914062 618.554688 386.777344 " fill-opacity="1" fill-rule="nonzero"/><path fill="#a6a6a6" d="M 618.554688 440.351562 C 618.554688 446.1875 613.816406 450.925781 607.953125 450.925781 L 314.433594 450.925781 C 308.597656 450.925781 303.832031 446.1875 303.832031 440.351562 C 303.832031 434.488281 308.597656 429.75 314.433594 429.75 L 607.953125 429.75 C 613.816406 429.75 618.554688 434.488281 618.554688 440.351562 " fill-opacity="1" fill-rule="nonzero"/><path fill="#a6a6a6" d="M 618.554688 493.925781 C 618.554688 499.761719 613.816406 504.5 607.953125 504.5 L 314.433594 504.5 C 308.597656 504.5 303.832031 499.761719 303.832031 493.925781 C 303.832031 488.0625 308.597656 483.296875 314.433594 483.296875 L 607.953125 483.296875 C 613.816406 483.296875 618.554688 488.0625 618.554688 493.925781 " fill-opacity="1" fill-rule="nonzero"/><path fill="#a6a6a6" d="M 618.554688 547.472656 C 618.554688 553.335938 613.816406 558.074219 607.953125 558.074219 L 314.433594 558.074219 C 308.597656 558.074219 303.832031 553.335938 303.832031 547.472656 C 303.832031 541.636719 308.597656 536.871094 314.433594 536.871094 L 607.953125 536.871094 C 613.816406 536.871094 618.554688 541.636719 618.554688 547.472656 " fill-opacity="1" fill-rule="nonzero"/></svg>