<svg xmlns="http://www.w3.org/2000/svg" xmlns:xlink="http://www.w3.org/1999/xlink" width="1024" zoomAndPan="magnify" viewBox="0 0 768 767.999994" height="1024" preserveAspectRatio="xMidYMid meet" version="1.0"><defs><clipPath id="75879b2511"><path d="M 79.488281 76.800781 L 656 76.800781 L 656 554 L 79.488281 554 Z M 79.488281 76.800781 " clip-rule="nonzero"/></clipPath><clipPath id="ceddf13e54"><path d="M 79.488281 76.800781 L 648 76.800781 L 648 637 L 79.488281 637 Z M 79.488281 76.800781 " clip-rule="nonzero"/></clipPath><clipPath id="11277119c6"><path d="M 79.488281 194 L 703.488281 194 L 703.488281 706.050781 L 79.488281 706.050781 Z M 79.488281 194 " clip-rule="nonzero"/></clipPath><clipPath id="16c9780d7a"><path d="M 125 438 L 393 438 L 393 706.050781 L 125 706.050781 Z M 125 438 " clip-rule="nonzero"/></clipPath><clipPath id="446fdc3bca"><path d="M 389 424 L 703.488281 424 L 703.488281 618 L 389 618 Z M 389 424 " clip-rule="nonzero"/></clipPath></defs><path fill="#c49a6c" d="M 81.472656 346.730469 L 281.503906 113.152344 C 282.378906 112.132812 283.289062 111.152344 284.242188 110.207031 C 285.195312 109.261719 286.183594 108.355469 287.210938 107.488281 C 288.234375 106.625 289.292969 105.800781 290.386719 105.019531 C 291.476562 104.238281 292.597656 103.503906 293.75 102.8125 C 294.898438 102.121094 296.074219 101.476562 297.277344 100.882812 C 298.480469 100.285156 299.703125 99.738281 300.949219 99.242188 C 302.195312 98.742188 303.457031 98.292969 304.742188 97.898438 C 306.023438 97.5 307.316406 97.15625 308.628906 96.863281 C 309.9375 96.570312 311.257812 96.332031 312.585938 96.144531 C 313.914062 95.957031 315.25 95.824219 316.589844 95.746094 C 317.925781 95.664062 319.269531 95.640625 320.609375 95.667969 C 321.949219 95.695312 323.289062 95.777344 324.625 95.914062 C 325.960938 96.046875 327.285156 96.238281 328.605469 96.480469 C 329.925781 96.722656 331.234375 97.015625 332.53125 97.363281 C 333.828125 97.707031 335.109375 98.105469 336.371094 98.558594 C 337.636719 99.007812 338.878906 99.507812 340.105469 100.054688 L 620.59375 226.164062 C 620.796875 226.257812 620.972656 226.390625 621.121094 226.558594 C 621.265625 226.730469 621.371094 226.921875 621.4375 227.136719 C 621.5 227.351562 621.519531 227.570312 621.492188 227.792969 C 621.460938 228.015625 621.386719 228.222656 621.269531 228.414062 L 457.425781 493.484375 L 344.027344 518.851562 L 81.761719 349.054688 C 81.578125 348.929688 81.425781 348.769531 81.304688 348.578125 C 81.1875 348.386719 81.117188 348.179688 81.085938 347.957031 C 81.058594 347.734375 81.078125 347.515625 81.148438 347.300781 C 81.214844 347.085938 81.324219 346.898438 81.472656 346.730469 Z M 81.472656 346.730469 " fill-opacity="1" fill-rule="nonzero"/><g clip-path="url(#75879b2511)"><path stroke-linecap="butt" transform="matrix(2.420511, 0, 0, 2.420511, -235.323605, -234.676756)" fill="none" stroke-linejoin="miter" d="M 130.879928 240.200233 L 213.52003 143.70071 C 213.881524 143.279505 214.257543 142.874438 214.651313 142.483895 C 215.045083 142.093353 215.453378 141.718948 215.87781 141.360682 C 216.300629 141.004029 216.737972 140.663515 217.18984 140.340752 C 217.640093 140.01799 218.103258 139.714593 218.579332 139.428948 C 219.053793 139.143304 219.539551 138.877025 220.036605 138.631725 C 220.533659 138.384812 221.038782 138.158878 221.553588 137.953924 C 222.068394 137.747356 222.589656 137.561767 223.1206 137.398772 C 223.649931 137.234164 224.184102 137.092148 224.726343 136.971112 C 225.266971 136.850076 225.812439 136.751634 226.361135 136.674171 C 226.909832 136.596708 227.461755 136.541838 228.015293 136.509562 C 228.567217 136.475672 229.122368 136.465989 229.675906 136.477286 C 230.229444 136.488582 230.782981 136.522472 231.334905 136.578956 C 231.886829 136.633825 232.433911 136.712902 232.97938 136.812959 C 233.524848 136.913015 234.065475 137.034051 234.601261 137.17768 C 235.137047 137.319696 235.666377 137.484304 236.187639 137.671507 C 236.710514 137.857095 237.223706 138.063663 237.730443 138.289597 L 353.610239 190.389915 C 353.694157 190.428646 353.766779 190.483516 353.828104 190.55291 C 353.887815 190.623917 353.931388 190.702994 353.958822 190.791754 C 353.984643 190.880514 353.992713 190.970887 353.981416 191.062874 C 353.968505 191.154862 353.937843 191.240394 353.889429 191.319471 L 286.199683 300.829549 L 239.350711 311.309646 L 130.99935 241.160451 C 130.923501 241.108809 130.860562 241.042643 130.810534 240.963566 C 130.762119 240.884489 130.733071 240.798957 130.72016 240.70697 C 130.708864 240.614983 130.716933 240.524609 130.745981 240.435849 C 130.773416 240.34709 130.818603 240.269627 130.879928 240.200233 Z M 130.879928 240.200233 " stroke="#231f20" stroke-width="1" stroke-opacity="1" stroke-miterlimit="10"/></g><path fill="#ffffff" d="M 103.917969 170.679688 L 516.789062 78.390625 L 613.210938 509.757812 L 200.339844 602.042969 Z M 103.917969 170.679688 " fill-opacity="1" fill-rule="nonzero"/><g clip-path="url(#ceddf13e54)"><path stroke-linecap="butt" transform="matrix(2.362217, -0.528018, 0.528018, 2.362217, -346.449237, -91.213027)" fill="none" stroke-linejoin="miter" d="M 157.979394 146.179929 L 332.76073 146.179348 L 332.760684 328.790518 L 157.9797 328.789523 Z M 157.979394 146.179929 " stroke="#231f20" stroke-width="1" stroke-opacity="1" stroke-miterlimit="10"/></g><path fill="#788ace" d="M 80.988281 351.085938 L 160.019531 704.480469 L 701.945312 583.457031 L 622.894531 230.0625 C 622.824219 229.773438 622.6875 229.527344 622.480469 229.320312 C 622.273438 229.109375 622.027344 228.96875 621.742188 228.898438 C 621.457031 228.828125 621.175781 228.835938 620.894531 228.921875 C 620.613281 229.007812 620.375 229.164062 620.183594 229.382812 L 423.273438 458.703125 C 399.359375 457.394531 377.40625 461.847656 357.917969 473.226562 L 83.191406 349.390625 C 82.925781 349.261719 82.648438 349.210938 82.355469 349.242188 C 82.0625 349.269531 81.796875 349.375 81.5625 349.554688 C 81.328125 349.734375 81.160156 349.960938 81.058594 350.238281 C 80.953125 350.515625 80.929688 350.796875 80.988281 351.085938 Z M 80.988281 351.085938 " fill-opacity="1" fill-rule="nonzero"/><g clip-path="url(#11277119c6)"><path stroke-linecap="butt" transform="matrix(2.420511, 0, 0, 2.420511, -235.323605, -234.676756)" fill="none" stroke-linejoin="miter" d="M 130.679815 241.999634 L 163.330466 387.999623 L 387.219495 338.000489 L 354.560775 192.000499 C 354.531726 191.881077 354.475242 191.779407 354.38971 191.693875 C 354.304178 191.606729 354.202508 191.548632 354.0847 191.519583 C 353.966892 191.490535 353.850697 191.493762 353.734503 191.529266 C 353.618308 191.56477 353.519866 191.629323 353.440789 191.719696 L 272.090122 286.460164 C 262.210363 285.919537 253.140737 287.759283 245.089428 292.460318 L 131.590005 241.299239 C 131.480266 241.245983 131.365685 241.225004 131.244649 241.237914 C 131.123613 241.249211 131.013874 241.292784 130.917045 241.367019 C 130.820217 241.441255 130.750823 241.534856 130.708864 241.649436 C 130.665291 241.764017 130.655608 241.880211 130.679815 241.999634 Z M 130.679815 241.999634 " stroke="#231f20" stroke-width="1" stroke-opacity="1" stroke-miterlimit="10"/></g><g clip-path="url(#16c9780d7a)"><path stroke-linecap="butt" transform="matrix(2.420511, 0, 0, 2.420511, 79.730053, 76.891387)" fill="none" stroke-linejoin="miter" d="M 114.910066 163.730631 L 33.170471 259.33933 " stroke="#231f20" stroke-width="1" stroke-opacity="1" stroke-miterlimit="10"/></g><g clip-path="url(#446fdc3bca)"><path stroke-linecap="butt" transform="matrix(2.420511, 0, 0, 2.420511, 79.730053, 76.891387)" fill="none" stroke-linejoin="miter" d="M 141.930126 157.690131 L 257.059499 209.280485 " stroke="#231f20" stroke-width="1" stroke-opacity="1" stroke-miterlimit="10"/></g></svg>