<svg xmlns="http://www.w3.org/2000/svg" xmlns:xlink="http://www.w3.org/1999/xlink" width="1024" zoomAndPan="magnify" viewBox="0 0 768 767.999994" height="1024" preserveAspectRatio="xMidYMid meet" version="1.0"><defs><clipPath id="1b8f269bf1"><path d="M 76.800781 150 L 679 150 L 679 611 L 76.800781 611 Z M 76.800781 150 " clip-rule="nonzero"/></clipPath></defs><rect x="-76.8" width="921.6" fill="#ffffff" y="-76.799999" height="921.599993" fill-opacity="1"/><rect x="-76.8" width="921.6" fill="#ffffff" y="-76.799999" height="921.599993" fill-opacity="1"/><path fill="#788ace" d="M 83.742188 250.945312 L 83.742188 203.5625 C 83.742188 178.28125 104.246094 157.777344 129.527344 157.777344 L 626.179688 157.777344 C 651.460938 157.777344 671.964844 178.28125 671.964844 203.5625 L 671.964844 250.945312 Z M 83.742188 250.945312 " fill-opacity="1" fill-rule="nonzero"/><path fill="#ffffff" d="M 671.949219 250.945312 L 671.949219 558.152344 C 671.949219 583.433594 651.445312 603.9375 626.164062 603.9375 L 129.527344 603.9375 C 104.246094 603.9375 83.742188 583.433594 83.742188 558.152344 L 83.742188 250.945312 Z M 671.949219 250.945312 " fill-opacity="1" fill-rule="nonzero"/><g clip-path="url(#1b8f269bf1)"><path fill="#a6a6a6" d="M 626.164062 610.894531 L 129.527344 610.894531 C 100.457031 610.894531 76.800781 587.238281 76.800781 558.167969 L 76.800781 203.5625 C 76.800781 174.492188 100.457031 150.835938 129.527344 150.835938 L 626.164062 150.835938 C 655.234375 150.835938 678.890625 174.492188 678.890625 203.5625 L 678.890625 558.167969 C 678.890625 587.238281 655.234375 610.894531 626.164062 610.894531 Z M 129.527344 164.71875 C 108.105469 164.71875 90.683594 182.140625 90.683594 203.5625 L 90.683594 558.167969 C 90.683594 579.589844 108.105469 597.011719 129.527344 597.011719 L 626.164062 597.011719 C 647.585938 597.011719 665.007812 579.589844 665.007812 558.167969 L 665.007812 203.5625 C 665.007812 182.140625 647.585938 164.71875 626.164062 164.71875 Z M 129.527344 164.71875 " fill-opacity="1" fill-rule="nonzero"/></g><path fill="#a6a6a6" d="M 540.773438 199.605469 C 525.78125 199.605469 513.617188 187.445312 513.617188 172.453125 L 513.617188 143.105469 C 513.617188 128.109375 525.78125 115.949219 540.773438 115.949219 C 555.765625 115.949219 567.925781 128.109375 567.925781 143.105469 L 567.925781 172.453125 C 567.925781 187.460938 555.765625 199.605469 540.773438 199.605469 Z M 540.773438 199.605469 " fill-opacity="1" fill-rule="nonzero"/><path fill="#a6a6a6" d="M 432.15625 199.605469 C 417.160156 199.605469 405 187.445312 405 172.453125 L 405 143.105469 C 405 128.109375 417.160156 115.949219 432.15625 115.949219 C 447.148438 115.949219 459.308594 128.109375 459.308594 143.105469 L 459.308594 172.453125 C 459.308594 187.460938 447.148438 199.605469 432.15625 199.605469 Z M 432.15625 199.605469 " fill-opacity="1" fill-rule="nonzero"/><path fill="#a6a6a6" d="M 323.535156 199.605469 C 308.542969 199.605469 296.382812 187.445312 296.382812 172.453125 L 296.382812 143.105469 C 296.382812 128.109375 308.542969 115.949219 323.535156 115.949219 C 338.53125 115.949219 350.691406 128.109375 350.691406 143.105469 L 350.691406 172.453125 C 350.691406 187.460938 338.53125 199.605469 323.535156 199.605469 Z M 323.535156 199.605469 " fill-opacity="1" fill-rule="nonzero"/><path fill="#a6a6a6" d="M 214.917969 199.605469 C 199.925781 199.605469 187.765625 187.445312 187.765625 172.453125 L 187.765625 143.105469 C 187.777344 128.109375 199.925781 115.949219 214.917969 115.949219 C 229.910156 115.949219 242.074219 128.109375 242.074219 143.105469 L 242.074219 172.453125 C 242.074219 187.460938 229.925781 199.605469 214.917969 199.605469 Z M 214.917969 199.605469 " fill-opacity="1" fill-rule="nonzero"/><path fill="#ffffff" d="M 197.941406 389.828125 L 150.808594 389.828125 C 143.507812 389.828125 137.59375 383.914062 137.59375 376.609375 L 137.59375 329.464844 C 137.59375 322.164062 143.507812 316.25 150.808594 316.25 L 197.953125 316.25 C 205.257812 316.25 211.171875 322.164062 211.171875 329.464844 L 211.171875 376.609375 C 211.15625 383.914062 205.242188 389.828125 197.941406 389.828125 Z M 197.941406 389.828125 " fill-opacity="1" fill-rule="nonzero"/><path fill="#a6a6a6" d="M 197.953125 396.769531 L 150.808594 396.769531 C 139.703125 396.769531 130.652344 387.730469 130.652344 376.609375 L 130.652344 329.464844 C 130.652344 318.359375 139.6875 309.308594 150.808594 309.308594 L 197.953125 309.308594 C 209.058594 309.308594 218.113281 318.34375 218.113281 329.464844 L 218.113281 376.609375 C 218.097656 387.730469 209.058594 396.769531 197.953125 396.769531 Z M 150.808594 323.203125 C 147.351562 323.203125 144.535156 326.023438 144.535156 329.480469 L 144.535156 376.625 C 144.535156 380.082031 147.351562 382.898438 150.808594 382.898438 L 197.953125 382.898438 C 201.410156 382.898438 204.230469 380.082031 204.230469 376.625 L 204.230469 329.480469 C 204.230469 326.023438 201.410156 323.203125 197.953125 323.203125 Z M 150.808594 323.203125 " fill-opacity="1" fill-rule="nonzero"/><path fill="#ffffff" d="M 333.710938 389.828125 L 286.566406 389.828125 C 279.265625 389.828125 273.351562 383.914062 273.351562 376.609375 L 273.351562 329.464844 C 273.351562 322.164062 279.265625 316.25 286.566406 316.25 L 333.710938 316.25 C 341.015625 316.25 346.929688 322.164062 346.929688 329.464844 L 346.929688 376.609375 C 346.929688 383.914062 341.015625 389.828125 333.710938 389.828125 Z M 333.710938 389.828125 " fill-opacity="1" fill-rule="nonzero"/><path fill="#a6a6a6" d="M 333.710938 396.769531 L 286.566406 396.769531 C 275.445312 396.769531 266.410156 387.730469 266.410156 376.609375 L 266.410156 329.464844 C 266.410156 318.359375 275.445312 309.308594 286.566406 309.308594 L 333.710938 309.308594 C 344.820312 309.308594 353.871094 318.34375 353.871094 329.464844 L 353.871094 376.609375 C 353.871094 387.730469 344.832031 396.769531 333.710938 396.769531 Z M 286.582031 323.203125 C 283.109375 323.203125 280.304688 326.023438 280.304688 329.480469 L 280.304688 376.625 C 280.304688 380.082031 283.125 382.898438 286.582031 382.898438 L 333.726562 382.898438 C 337.183594 382.898438 340 380.082031 340 376.625 L 340 329.480469 C 340 326.023438 337.183594 323.203125 333.726562 323.203125 Z M 286.582031 323.203125 " fill-opacity="1" fill-rule="nonzero"/><path fill="#ffffff" d="M 469.125 389.828125 L 421.980469 389.828125 C 414.675781 389.828125 408.761719 383.914062 408.761719 376.609375 L 408.761719 329.464844 C 408.761719 322.164062 414.675781 316.25 421.980469 316.25 L 469.125 316.25 C 476.425781 316.25 482.339844 322.164062 482.339844 329.464844 L 482.339844 376.609375 C 482.339844 383.914062 476.414062 389.828125 469.125 389.828125 Z M 469.125 389.828125 " fill-opacity="1" fill-rule="nonzero"/><path fill="#a6a6a6" d="M 469.125 396.769531 L 421.980469 396.769531 C 410.859375 396.769531 401.820312 387.730469 401.820312 376.609375 L 401.820312 329.464844 C 401.820312 318.359375 410.859375 309.308594 421.980469 309.308594 L 469.125 309.308594 C 480.246094 309.308594 489.28125 318.34375 489.28125 329.464844 L 489.28125 376.609375 C 489.28125 387.730469 480.246094 396.769531 469.125 396.769531 Z M 421.980469 323.203125 C 418.523438 323.203125 415.703125 326.023438 415.703125 329.480469 L 415.703125 376.625 C 415.703125 380.082031 418.523438 382.898438 421.980469 382.898438 L 469.125 382.898438 C 472.582031 382.898438 475.398438 380.082031 475.398438 376.625 L 475.398438 329.480469 C 475.398438 326.023438 472.582031 323.203125 469.125 323.203125 Z M 421.980469 323.203125 " fill-opacity="1" fill-rule="nonzero"/><path fill="#ffffff" d="M 604.882812 389.828125 L 557.738281 389.828125 C 550.433594 389.828125 544.519531 383.914062 544.519531 376.609375 L 544.519531 329.464844 C 544.519531 322.164062 550.433594 316.25 557.738281 316.25 L 604.882812 316.25 C 612.183594 316.25 618.097656 322.164062 618.097656 329.464844 L 618.097656 376.609375 C 618.097656 383.914062 612.183594 389.828125 604.882812 389.828125 Z M 604.882812 389.828125 " fill-opacity="1" fill-rule="nonzero"/><path fill="#a6a6a6" d="M 604.882812 396.769531 L 557.738281 396.769531 C 546.632812 396.769531 537.59375 387.730469 537.59375 376.609375 L 537.59375 329.464844 C 537.59375 318.359375 546.632812 309.308594 557.738281 309.308594 L 604.882812 309.308594 C 616.003906 309.308594 625.039062 318.34375 625.039062 329.464844 L 625.039062 376.609375 C 625.039062 387.730469 616.003906 396.769531 604.882812 396.769531 Z M 557.738281 323.203125 C 554.28125 323.203125 551.476562 326.023438 551.476562 329.480469 L 551.476562 376.625 C 551.476562 380.082031 554.28125 382.898438 557.738281 382.898438 L 604.882812 382.898438 C 608.339844 382.898438 611.15625 380.082031 611.15625 376.625 L 611.15625 329.480469 C 611.15625 326.023438 608.339844 323.203125 604.882812 323.203125 Z M 557.738281 323.203125 " fill-opacity="1" fill-rule="nonzero"/><path fill="#ffffff" d="M 197.941406 522.765625 L 150.808594 522.765625 C 143.507812 522.765625 137.59375 516.851562 137.59375 509.550781 L 137.59375 462.40625 C 137.59375 455.101562 143.507812 449.1875 150.808594 449.1875 L 197.953125 449.1875 C 205.257812 449.1875 211.171875 455.101562 211.171875 462.40625 L 211.171875 509.550781 C 211.15625 516.851562 205.242188 522.765625 197.941406 522.765625 Z M 197.941406 522.765625 " fill-opacity="1" fill-rule="nonzero"/><path fill="#a6a6a6" d="M 197.953125 529.707031 L 150.808594 529.707031 C 139.703125 529.707031 130.652344 520.671875 130.652344 509.550781 L 130.652344 462.40625 C 130.652344 451.300781 139.6875 442.246094 150.808594 442.246094 L 197.953125 442.246094 C 209.058594 442.246094 218.113281 451.285156 218.113281 462.40625 L 218.113281 509.550781 C 218.097656 520.65625 209.058594 529.707031 197.953125 529.707031 Z M 150.808594 456.144531 C 147.351562 456.144531 144.535156 458.960938 144.535156 462.417969 L 144.535156 509.566406 C 144.535156 513.023438 147.351562 515.839844 150.808594 515.839844 L 197.953125 515.839844 C 201.410156 515.839844 204.230469 513.023438 204.230469 509.566406 L 204.230469 462.417969 C 204.230469 458.960938 201.410156 456.144531 197.953125 456.144531 Z M 150.808594 456.144531 " fill-opacity="1" fill-rule="nonzero"/><path fill="#ffffff" d="M 333.710938 522.765625 L 286.566406 522.765625 C 279.265625 522.765625 273.351562 516.851562 273.351562 509.550781 L 273.351562 462.40625 C 273.351562 455.101562 279.265625 449.1875 286.566406 449.1875 L 333.710938 449.1875 C 341.015625 449.1875 346.929688 455.101562 346.929688 462.40625 L 346.929688 509.550781 C 346.929688 516.851562 341.015625 522.765625 333.710938 522.765625 Z M 333.710938 522.765625 " fill-opacity="1" fill-rule="nonzero"/><path fill="#a6a6a6" d="M 333.710938 529.707031 L 286.566406 529.707031 C 275.445312 529.707031 266.410156 520.671875 266.410156 509.550781 L 266.410156 462.40625 C 266.410156 451.300781 275.445312 442.246094 286.566406 442.246094 L 333.710938 442.246094 C 344.820312 442.246094 353.871094 451.285156 353.871094 462.40625 L 353.871094 509.550781 C 353.871094 520.65625 344.832031 529.707031 333.710938 529.707031 Z M 286.582031 456.144531 C 283.109375 456.144531 280.304688 458.960938 280.304688 462.417969 L 280.304688 509.566406 C 280.304688 513.023438 283.125 515.839844 286.582031 515.839844 L 333.726562 515.839844 C 337.183594 515.839844 340 513.023438 340 509.566406 L 340 462.417969 C 340 458.960938 337.183594 456.144531 333.726562 456.144531 Z M 286.582031 456.144531 " fill-opacity="1" fill-rule="nonzero"/><path fill="#ffffff" d="M 469.125 522.765625 L 421.980469 522.765625 C 414.675781 522.765625 408.761719 516.851562 408.761719 509.550781 L 408.761719 462.40625 C 408.761719 455.101562 414.675781 449.1875 421.980469 449.1875 L 469.125 449.1875 C 476.425781 449.1875 482.339844 455.101562 482.339844 462.40625 L 482.339844 509.550781 C 482.339844 516.851562 476.414062 522.765625 469.125 522.765625 Z M 469.125 522.765625 " fill-opacity="1" fill-rule="nonzero"/><path fill="#a6a6a6" d="M 469.125 529.707031 L 421.980469 529.707031 C 410.859375 529.707031 401.820312 520.671875 401.820312 509.550781 L 401.820312 462.40625 C 401.820312 451.300781 410.859375 442.246094 421.980469 442.246094 L 469.125 442.246094 C 480.246094 442.246094 489.28125 451.285156 489.28125 462.40625 L 489.28125 509.550781 C 489.28125 520.65625 480.246094 529.707031 469.125 529.707031 Z M 421.980469 456.144531 C 418.523438 456.144531 415.703125 458.960938 415.703125 462.417969 L 415.703125 509.566406 C 415.703125 513.023438 418.523438 515.839844 421.980469 515.839844 L 469.125 515.839844 C 472.582031 515.839844 475.398438 513.023438 475.398438 509.566406 L 475.398438 462.417969 C 475.398438 458.960938 472.582031 456.144531 469.125 456.144531 Z M 421.980469 456.144531 " fill-opacity="1" fill-rule="nonzero"/><path fill="#ffffff" d="M 604.882812 522.765625 L 557.738281 522.765625 C 550.433594 522.765625 544.519531 516.851562 544.519531 509.550781 L 544.519531 462.40625 C 544.519531 455.101562 550.433594 449.1875 557.738281 449.1875 L 604.882812 449.1875 C 612.183594 449.1875 618.097656 455.101562 618.097656 462.40625 L 618.097656 509.550781 C 618.097656 516.851562 612.183594 522.765625 604.882812 522.765625 Z M 604.882812 522.765625 " fill-opacity="1" fill-rule="nonzero"/><path fill="#a6a6a6" d="M 604.882812 529.707031 L 557.738281 529.707031 C 546.632812 529.707031 537.59375 520.671875 537.59375 509.550781 L 537.59375 462.40625 C 537.59375 451.300781 546.632812 442.246094 557.738281 442.246094 L 604.882812 442.246094 C 616.003906 442.246094 625.039062 451.285156 625.039062 462.40625 L 625.039062 509.550781 C 625.039062 520.65625 616.003906 529.707031 604.882812 529.707031 Z M 557.738281 456.144531 C 554.28125 456.144531 551.476562 458.960938 551.476562 462.417969 L 551.476562 509.566406 C 551.476562 513.023438 554.28125 515.839844 557.738281 515.839844 L 604.882812 515.839844 C 608.339844 515.839844 611.15625 513.023438 611.15625 509.566406 L 611.15625 462.417969 C 611.15625 458.960938 608.339844 456.144531 604.882812 456.144531 Z M 557.738281 456.144531 " fill-opacity="1" fill-rule="nonzero"/><path fill="#a6a6a6" d="M 83.742188 244.003906 L 671.964844 244.003906 L 671.964844 257.886719 L 83.742188 257.886719 Z M 83.742188 244.003906 " fill-opacity="1" fill-rule="nonzero"/></svg>